<svg width="263" height="41" viewBox="0 0 263 41" fill="none" xmlns="http://www.w3.org/2000/svg">
    <path d="M10.5176 8.15918V7.15918H9.51758V8.15918H10.5176ZM10.5176 15.0693H9.51758V16.4338L10.8187 16.0229L10.5176 15.0693ZM25.2725 17.7031L25.9906 17.0072L25.2725 17.7031ZM25.2158 36.4795L25.9024 37.2065L25.9026 37.2063L25.2158 36.4795ZM3.94727 37.3857L4.49182 36.547L4.48693 36.5439L3.94727 37.3857ZM6.80762 32.2031L6.16928 32.9729L6.17491 32.9776L6.18061 32.9821L6.80762 32.2031ZM9.24316 33.5059L9.52777 32.5472L9.5207 32.5451L9.24316 33.5059ZM21.0811 32.373L21.7364 33.1284L21.7427 33.1229L21.0811 32.373ZM21.1377 21.8096L20.4098 22.4953L20.4151 22.5008L21.1377 21.8096ZM9.21484 21.8945L8.76261 21.0026L8.75411 21.0069L8.74569 21.0114L9.21484 21.8945ZM5.5332 21.4697L4.79222 22.1412L4.79789 22.1475L4.80367 22.1537L5.5332 21.4697ZM4.71191 2.35352V1.35352H3.71191V2.35352H4.71191ZM25.4424 3.1748L24.7592 3.90508L24.7714 3.91643L24.7839 3.92738L25.4424 3.1748ZM25.4424 7.36621L26.1127 8.10831L26.1139 8.1072L25.4424 7.36621ZM9.51758 8.15918V15.0693H11.5176V8.15918H9.51758ZM10.8187 16.0229C12.8999 15.3657 14.7505 15.0498 16.3799 15.0498V13.0498C14.4975 13.0498 12.4399 13.4136 10.2164 14.1158L10.8187 16.0229ZM16.3799 15.0498C19.6934 15.0498 22.3934 16.1689 24.5543 18.399L25.9906 17.0072C23.4315 14.3663 20.2031 13.0498 16.3799 13.0498V15.0498ZM24.5543 18.399C26.7086 20.6223 27.8125 23.5038 27.8125 27.1338H29.8125C29.8125 23.0606 28.5563 19.6551 25.9906 17.0072L24.5543 18.399ZM27.8125 27.1338C27.8125 30.8835 26.6871 33.7135 24.529 35.7526L25.9026 37.2063C28.5401 34.7143 29.8125 31.3137 29.8125 27.1338H27.8125ZM24.5292 35.7525C22.411 37.753 19.0546 38.8496 14.2559 38.8496V40.8496C19.3125 40.8496 23.2629 39.6995 25.9024 37.2065L24.5292 35.7525ZM14.2559 38.8496C10.0259 38.8496 6.80309 38.0476 4.49181 36.547L3.40272 38.2245C6.15134 40.009 9.8009 40.8496 14.2559 40.8496V38.8496ZM4.48693 36.5439C3.16831 35.6986 2.73828 34.883 2.73828 34.1289H0.738281C0.738281 35.8292 1.78091 37.1849 3.4076 38.2276L4.48693 36.5439ZM2.73828 34.1289C2.73828 33.6302 2.90884 33.2114 3.295 32.8253L1.88078 31.4111C1.13413 32.1577 0.738281 33.0795 0.738281 34.1289H2.73828ZM3.295 32.8253C3.70191 32.4184 4.1402 32.2402 4.65527 32.2402V30.2402C3.58441 30.2402 2.64445 30.6474 1.88078 31.4111L3.295 32.8253ZM4.65527 32.2402C4.98838 32.2402 5.48504 32.4055 6.16928 32.9729L7.44595 31.4334C6.58202 30.7169 5.64379 30.2402 4.65527 30.2402V32.2402ZM6.18061 32.9821C7.04524 33.6781 7.9738 34.18 8.96562 34.4666L9.5207 32.5451C8.81331 32.3408 8.11817 31.9743 7.43463 31.4241L6.18061 32.9821ZM8.95857 34.4645C10.2929 34.8606 11.9462 35.0439 13.8877 35.0439V33.0439C12.0531 33.0439 10.6101 32.8685 9.52776 32.5472L8.95857 34.4645ZM13.8877 35.0439C17.4253 35.0439 20.1563 34.4994 21.7364 33.1284L20.4257 31.6177C19.4381 32.4746 17.3736 33.0439 13.8877 33.0439V35.0439ZM21.7427 33.1229C23.3107 31.7393 24.0068 29.6925 24.0068 27.1904H22.0068C22.0068 29.3329 21.4191 30.7411 20.4194 31.6232L21.7427 33.1229ZM24.0068 27.1904C24.0068 24.7203 23.3286 22.6533 21.8603 21.1183L20.4151 22.5008C21.439 23.5713 22.0068 25.0916 22.0068 27.1904H24.0068ZM21.8656 21.1239C20.4319 19.602 18.5736 18.8555 16.3799 18.8555V20.8555C18.0755 20.8555 19.389 21.4117 20.4098 22.4953L21.8656 21.1239ZM16.3799 18.8555C14.0738 18.8555 11.527 19.601 8.76261 21.0026L9.66708 22.7864C12.2647 21.4694 14.4945 20.8555 16.3799 20.8555V18.8555ZM8.74569 21.0114C8.21844 21.2915 7.85604 21.376 7.62891 21.376V23.376C8.30802 23.376 9.00292 23.1395 9.684 22.7776L8.74569 21.0114ZM7.62891 21.376C7.07361 21.376 6.63943 21.1876 6.26274 20.7858L4.80367 22.1537C5.55979 22.9602 6.52275 23.376 7.62891 23.376V21.376ZM6.27419 20.7982C5.92278 20.4104 5.71191 19.8814 5.71191 19.1191H3.71191C3.71191 20.2827 4.04858 21.3207 4.79222 22.1412L6.27419 20.7982ZM5.71191 19.1191V2.35352H3.71191V19.1191H5.71191ZM4.71191 3.35352H22.4688V1.35352H4.71191V3.35352ZM22.4688 3.35352C23.7853 3.35352 24.4555 3.62095 24.7592 3.90508L26.1255 2.44453C25.2587 1.63361 23.9465 1.35352 22.4688 1.35352V3.35352ZM24.7839 3.92738C25.1518 4.24928 25.3486 4.66376 25.3486 5.27051H27.3486C27.3486 4.14028 26.9413 3.15762 26.1009 2.42223L24.7839 3.92738ZM25.3486 5.27051C25.3486 5.85127 25.1561 6.2761 24.7709 6.62522L26.1139 8.1072C26.937 7.36127 27.3486 6.38897 27.3486 5.27051H25.3486ZM24.7721 6.62411C24.4678 6.89893 23.7915 7.15918 22.4688 7.15918V9.15918C23.9403 9.15918 25.2464 8.89078 26.1127 8.10831L24.7721 6.62411ZM22.4688 7.15918H10.5176V9.15918H22.4688V7.15918ZM63.105 34.667L62.2604 34.1316L62.2583 34.1349L63.105 34.667ZM47.812 38.3203L47.2687 39.16L47.2803 39.1672L47.812 38.3203ZM43.2241 32.6279L42.3358 33.0872L42.3396 33.0944L43.2241 32.6279ZM44.3286 6.62988L45.1753 7.16196L45.1766 7.15988L44.3286 6.62988ZM59.565 2.94824L59.0287 3.79232L59.0332 3.79513L59.565 2.94824ZM64.1812 8.64062L63.2953 9.10465L63.2992 9.11184L64.1812 8.64062ZM57.9224 9.17871L58.7247 8.5818L58.7201 8.57564L58.7154 8.56956L57.9224 9.17871ZM49.398 9.37695L48.6081 8.76373L48.6071 8.76492L49.398 9.37695ZM49.5396 32.0898L50.3382 31.488L50.3365 31.4857L49.5396 32.0898ZM58.0357 31.8916L58.8256 32.5048L58.8265 32.5036L58.0357 31.8916ZM65.3902 17.4482V23.8203H67.3902V17.4482H65.3902ZM65.3902 23.8203C65.3902 27.391 64.3578 30.8228 62.2604 34.1316L63.9496 35.2024C66.2324 31.6011 67.3902 27.8017 67.3902 23.8203H65.3902ZM62.2583 34.1349C60.2689 37.3007 57.4724 38.8496 53.7593 38.8496V40.8496C58.1647 40.8496 61.5987 38.9435 63.9517 35.1991L62.2583 34.1349ZM53.7593 38.8496C51.5646 38.8496 49.7762 38.3728 48.3438 37.4734L47.2803 39.1672C49.0953 40.3069 51.2718 40.8496 53.7593 40.8496V38.8496ZM48.3553 37.4807C46.958 36.5766 45.5275 34.8517 44.1087 32.1614L42.3396 33.0944C43.8283 35.9172 45.4565 37.9872 47.2688 39.1599L48.3553 37.4807ZM44.1124 32.1687C42.7503 29.5339 42.0718 26.7554 42.0718 23.8203H40.0718C40.0718 27.078 40.8282 30.1712 42.3358 33.0872L44.1124 32.1687ZM42.0718 23.8203V17.4482H40.0718V23.8203H42.0718ZM42.0718 17.4482C42.0718 13.8955 43.0953 10.4719 45.1753 7.16196L43.4819 6.09781C41.2195 9.69802 40.0718 13.4867 40.0718 17.4482H42.0718ZM45.1766 7.15988C47.1672 3.97501 49.9637 2.41895 53.6743 2.41895V0.418945C49.2664 0.418945 45.8325 2.33684 43.4806 6.09988L45.1766 7.15988ZM53.6743 2.41895C55.8489 2.41895 57.6165 2.89512 59.0287 3.79231L60.1012 2.10417C58.3038 0.962299 56.1443 0.418945 53.6743 0.418945V2.41895ZM59.0332 3.79513C60.4403 4.67867 61.8771 6.39701 63.2953 9.10463L65.067 8.17662C63.5777 5.33346 61.937 3.25687 60.0967 2.10135L59.0332 3.79513ZM63.2992 9.11184C64.6946 11.7239 65.3902 14.4979 65.3902 17.4482H67.3902C67.3902 14.1681 66.613 11.0704 65.0632 8.16941L63.2992 9.11184ZM61.5562 17.4482C61.5562 14.0966 60.6184 11.1271 58.7247 8.5818L57.1201 9.77563C58.7381 11.9504 59.5562 14.4939 59.5562 17.4482H61.5562ZM58.7154 8.56956C57.5041 6.99256 55.789 6.22461 53.7027 6.22461V8.22461C55.2413 8.22461 56.3393 8.75939 57.1293 9.78787L58.7154 8.56956ZM53.7027 6.22461C51.6256 6.22461 49.9038 7.09466 48.6081 8.76373L50.1879 9.99017C51.12 8.78946 52.2679 8.22461 53.7027 8.22461V6.22461ZM48.6071 8.76492C46.7691 11.1399 45.8775 14.056 45.8775 17.4482H47.8775C47.8775 14.4212 48.6661 11.9565 50.1888 9.98899L48.6071 8.76492ZM45.8775 17.4482V23.8203H47.8775V17.4482H45.8775ZM45.8775 23.8203C45.8775 27.1919 46.8254 30.1648 48.7427 32.694L50.3365 31.4857C48.7042 29.3326 47.8775 26.7925 47.8775 23.8203H45.8775ZM48.741 32.6917C49.9368 34.2784 51.6581 35.0439 53.7593 35.0439V33.0439C52.1977 33.0439 51.1059 32.5067 50.3382 31.488L48.741 32.6917ZM53.7593 35.0439C55.8213 35.0439 57.5323 34.1707 58.8256 32.5048L57.2458 31.2784C56.3112 32.4823 55.1713 33.0439 53.7593 33.0439V35.0439ZM58.8265 32.5036C60.6645 30.1287 61.5562 27.2125 61.5562 23.8203H59.5562C59.5562 26.8474 58.7675 29.3121 57.2448 31.2796L58.8265 32.5036ZM61.5562 23.8203V17.4482H59.5562V23.8203H61.5562ZM139.393 14.333L138.934 15.2216L139.565 15.547L140.08 15.0595L139.393 14.333ZM143.585 14.248L142.832 14.9066L142.843 14.9191L142.854 14.9312L143.585 14.248ZM143.585 23.9053L142.854 23.2221L142.848 23.2285L142.842 23.235L143.585 23.9053ZM139.478 24.1035L138.827 24.8628L138.834 24.8684L138.841 24.8739L139.478 24.1035ZM138.544 22.0361L137.566 22.2457L137.566 22.2493L138.544 22.0361ZM136.901 19.6855L136.391 20.5458L136.395 20.548L136.901 19.6855ZM124.44 20.7334L123.745 20.0141L123.741 20.0181L124.44 20.7334ZM124.355 32.2031L123.715 32.9714L123.72 32.9759L124.355 32.2031ZM138.175 33.4209L138.481 34.3731L138.492 34.3696L138.175 33.4209ZM140.753 31.8916L141.415 32.641L141.424 32.6323L140.753 31.8916ZM145.001 31.665L144.282 32.3605L144.288 32.3664L144.293 32.3721L145.001 31.665ZM143.245 37.3857L142.696 36.5496L142.694 36.5509L143.245 37.3857ZM121.268 37.1592L121.865 36.357L121.862 36.3549L121.268 37.1592ZM120.305 16.5986L121.005 17.313L121.007 17.3106L120.305 16.5986ZM140.08 15.0595C140.652 14.5189 141.135 14.3418 141.545 14.3418V12.3418C140.483 12.3418 139.532 12.8255 138.706 13.6065L140.08 15.0595ZM141.545 14.3418C142.099 14.3418 142.501 14.5279 142.832 14.9066L144.337 13.5895C143.611 12.7599 142.653 12.3418 141.545 12.3418V14.3418ZM142.854 14.9312C143.14 15.2368 143.406 15.9002 143.406 17.1934H145.406C145.406 15.73 145.124 14.4299 144.315 13.5649L142.854 14.9312ZM143.406 17.1934V20.9316H145.406V17.1934H143.406ZM143.406 20.9316C143.406 22.2482 143.138 22.9184 142.854 23.2221L144.315 24.5884C145.126 23.7216 145.406 22.4094 145.406 20.9316H143.406ZM142.842 23.235C142.524 23.5878 142.106 23.7832 141.489 23.7832V25.7832C142.608 25.7832 143.588 25.3934 144.327 24.5756L142.842 23.235ZM141.489 23.7832C140.9 23.7832 140.463 23.6205 140.116 23.3331L138.841 24.8739C139.588 25.4928 140.492 25.7832 141.489 25.7832V23.7832ZM140.129 23.3443C139.998 23.2324 139.741 22.8315 139.521 21.823L137.566 22.2493C137.8 23.3176 138.165 24.2949 138.827 24.8628L140.129 23.3443ZM139.521 21.8266C139.241 20.5179 138.537 19.4861 137.407 18.8231L136.395 20.548C137.002 20.9045 137.393 21.4398 137.566 22.2457L139.521 21.8266ZM137.411 18.8253C135.683 17.8017 133.538 17.3262 131.039 17.3262V19.3262C133.297 19.3262 135.06 19.7569 136.391 20.5458L137.411 18.8253ZM131.039 17.3262C128.093 17.3262 125.627 18.1965 123.745 20.0141L125.135 21.4527C126.576 20.0607 128.509 19.3262 131.039 19.3262V17.3262ZM123.741 20.0181C121.892 21.825 120.976 24.1192 120.976 26.8223H122.976C122.976 24.6165 123.703 22.8514 125.139 21.4487L123.741 20.0181ZM120.976 26.8223C120.976 29.3519 121.877 31.4397 123.715 32.9713L124.995 31.4349C123.661 30.3233 122.976 28.8239 122.976 26.8223H120.976ZM123.72 32.9759C125.58 34.5036 128.507 35.1572 132.256 35.1572V33.1572C128.643 33.1572 126.302 32.5081 124.99 31.4304L123.72 32.9759ZM132.256 35.1572C134.73 35.1572 136.816 34.9073 138.481 34.3731L137.87 32.4687C136.476 32.9162 134.616 33.1572 132.256 33.1572V35.1572ZM138.492 34.3696C139.541 34.0196 140.516 33.4355 141.415 32.6409L140.09 31.1423C139.366 31.7826 138.622 32.218 137.859 32.4722L138.492 34.3696ZM141.424 32.6323C142.165 31.9602 142.668 31.7871 142.961 31.7871V29.7871C141.933 29.7871 140.963 30.3504 140.081 31.1509L141.424 32.6323ZM142.961 31.7871C143.475 31.7871 143.898 31.9639 144.282 32.3605L145.719 30.9696C144.97 30.1956 144.034 29.7871 142.961 29.7871V31.7871ZM144.293 32.3721C144.7 32.7791 144.878 33.2174 144.878 33.7324H146.878C146.878 32.6616 146.471 31.7216 145.708 30.9579L144.293 32.3721ZM144.878 33.7324C144.878 34.5071 144.354 35.4625 142.696 36.5496L143.793 38.2219C145.648 37.0056 146.878 35.5255 146.878 33.7324H144.878ZM142.694 36.5509C140.324 38.114 136.738 38.9629 131.803 38.9629V40.9629C136.913 40.9629 140.955 40.0937 143.795 38.2206L142.694 36.5509ZM131.803 38.9629C127.414 38.9629 124.142 38.0521 121.865 36.357L120.671 37.9613C123.416 40.0046 127.167 40.9629 131.803 40.9629V38.9629ZM121.862 36.3549C118.729 34.0394 117.17 30.9067 117.17 26.8506H115.17C115.17 31.5172 117.011 35.2568 120.674 37.9634L121.862 36.3549ZM117.17 26.8506C117.17 22.9633 118.455 19.8104 121.005 17.313L119.606 15.8842C116.642 18.7866 115.17 22.4684 115.17 26.8506H117.17ZM121.007 17.3106C123.549 14.8037 126.88 13.5205 131.095 13.5205V11.5205C126.437 11.5205 122.574 12.9561 119.603 15.8867L121.007 17.3106ZM131.095 13.5205C132.638 13.5205 134.057 13.6657 135.356 13.9504L135.784 11.9968C134.327 11.6774 132.762 11.5205 131.095 11.5205V13.5205ZM135.356 13.9504C136.655 14.2352 137.847 14.6601 138.934 15.2216L139.852 13.4444C138.599 12.7976 137.241 12.3162 135.784 11.9968L135.356 13.9504ZM159.582 15.8906L160.494 15.4797L158.582 15.8906H159.582ZM159.582 33.1943H158.582V34.1943H159.582V33.1943ZM164.651 34.0156L163.968 34.7459L163.98 34.7573L163.993 34.7682L164.651 34.0156ZM164.651 38.207L165.322 38.9491L165.323 38.948L164.651 38.207ZM151.086 38.207L150.414 38.948L150.416 38.9491L151.086 38.207ZM151.058 34.0156L151.728 34.7577L151.734 34.7519L151.741 34.7459L151.058 34.0156ZM153.776 33.1943V34.1943H154.776V33.1943H153.776ZM153.776 10.4814H154.776V9.56976L153.869 9.4857L153.776 10.4814ZM151.454 9.54688L150.734 10.241L150.741 10.2476L150.747 10.254L151.454 9.54688ZM151.567 5.46875L152.238 6.21085L152.239 6.20974L151.567 5.46875ZM154.569 4.64746L154.574 3.64746H154.569V4.64746ZM160.941 4.67578L161.853 4.26376L161.588 3.67865L160.946 3.67579L160.941 4.67578ZM168.843 22.1494L167.932 22.5614L168.852 24.5964L169.757 22.5547L168.843 22.1494ZM176.603 4.64746L176.607 3.64747L175.953 3.64459L175.688 4.24215L176.603 4.64746ZM183.031 4.67578L183.027 5.67578H183.031V4.67578ZM186.005 5.46875L185.335 6.21085L185.341 6.21614L185.346 6.22133L186.005 5.46875ZM186.118 9.54688L186.825 10.254L186.118 9.54688ZM183.824 10.4814L183.73 9.48587L182.824 9.57134V10.4814H183.824ZM183.824 33.1943H182.824V34.1943H183.824V33.1943ZM186.515 38.207L187.185 38.9491L187.186 38.948L186.515 38.207ZM172.921 38.207L172.238 38.9373L172.25 38.9487L172.262 38.9596L172.921 38.207ZM172.921 34.0156L173.591 34.7577L173.592 34.7566L172.921 34.0156ZM178.019 33.1943V34.1943H179.019V33.1943H178.019ZM178.019 15.8906H179.019L177.105 15.484L178.019 15.8906ZM171.363 30.8438V31.8438H172.013L172.277 31.2504L171.363 30.8438ZM166.322 30.8438L165.411 31.2547L165.676 31.8438H166.322V30.8438ZM158.582 15.8906V33.1943H160.582V15.8906H158.582ZM159.582 34.1943H161.678V32.1943H159.582V34.1943ZM161.678 34.1943C162.994 34.1943 163.665 34.4618 163.968 34.7459L165.335 33.2854C164.468 32.4744 163.156 32.1943 161.678 32.1943V34.1943ZM163.993 34.7682C164.361 35.0901 164.558 35.5046 164.558 36.1113H166.558C166.558 34.9811 166.15 33.9984 165.31 33.2631L163.993 34.7682ZM164.558 36.1113C164.558 36.6921 164.365 37.1169 163.98 37.466L165.323 38.948C166.146 38.2021 166.558 37.2298 166.558 36.1113H164.558ZM163.981 37.4649C163.677 37.7397 163.001 38 161.678 38V40C163.149 40 164.455 39.7316 165.322 38.9491L163.981 37.4649ZM161.678 38H154.06V40H161.678V38ZM154.06 38C152.737 38 152.061 37.7397 151.756 37.4649L150.416 38.9491C151.282 39.7316 152.588 40 154.06 40V38ZM151.758 37.466C151.377 37.1216 151.18 36.6899 151.18 36.083H149.18C149.18 37.2131 149.586 38.1974 150.414 38.948L151.758 37.466ZM151.18 36.083C151.18 35.4917 151.37 35.0809 151.728 34.7577L150.387 33.2735C149.575 34.0076 149.18 34.9751 149.18 36.083H151.18ZM151.741 34.7459C152.063 34.4441 152.672 34.1943 153.776 34.1943V32.1943C152.426 32.1943 151.222 32.4921 150.375 33.2854L151.741 34.7459ZM154.776 33.1943V10.4814H152.776V33.1943H154.776ZM153.869 9.4857C152.996 9.4049 152.473 9.15143 152.161 8.83977L150.747 10.254C151.493 10.9996 152.518 11.3692 153.684 11.4772L153.869 9.4857ZM152.174 8.85274C151.859 8.52619 151.69 8.12118 151.69 7.56445H149.69C149.69 8.59366 150.03 9.51027 150.734 10.241L152.174 8.85274ZM151.69 7.56445C151.69 6.94687 151.885 6.52948 152.238 6.21085L150.897 4.72665C150.079 5.46531 149.69 6.44506 149.69 7.56445H151.69ZM152.239 6.20974C152.566 5.91304 153.257 5.64746 154.569 5.64746V3.64746C153.087 3.64746 151.777 3.92941 150.896 4.72776L152.239 6.20974ZM154.565 5.64745L160.937 5.67577L160.946 3.67579L154.574 3.64747L154.565 5.64745ZM160.03 5.0878L167.932 22.5614L169.754 21.7374L161.853 4.26376L160.03 5.0878ZM169.757 22.5547L177.517 5.05278L175.688 4.24215L167.929 21.7441L169.757 22.5547ZM176.598 5.64745L183.027 5.67577L183.036 3.67579L176.607 3.64747L176.598 5.64745ZM183.031 5.67578C184.354 5.67578 185.03 5.93603 185.335 6.21085L186.675 4.72665C185.809 3.94418 184.503 3.67578 183.031 3.67578V5.67578ZM185.346 6.22133C185.714 6.54323 185.911 6.9577 185.911 7.56445H187.911C187.911 6.43423 187.504 5.45156 186.663 4.71617L185.346 6.22133ZM185.911 7.56445C185.911 8.11006 185.74 8.51092 185.411 8.83977L186.825 10.254C187.554 9.52554 187.911 8.60478 187.911 7.56445H185.911ZM185.411 8.83977C185.096 9.15477 184.579 9.40578 183.73 9.48587L183.918 11.477C185.071 11.3683 186.083 10.9963 186.825 10.254L185.411 8.83977ZM182.824 10.4814V33.1943H184.824V10.4814H182.824ZM183.824 34.1943C184.929 34.1943 185.537 34.4441 185.86 34.7459L187.226 33.2854C186.378 32.4921 185.174 32.1943 183.824 32.1943V34.1943ZM185.86 34.7459C186.23 35.092 186.421 35.5198 186.421 36.1113H188.421C188.421 35.0036 188.027 34.0343 187.226 33.2854L185.86 34.7459ZM186.421 36.1113C186.421 36.6921 186.228 37.1169 185.843 37.466L187.186 38.948C188.009 38.2021 188.421 37.2298 188.421 36.1113H186.421ZM185.844 37.4649C185.54 37.7397 184.864 38 183.541 38V40C185.013 40 186.319 39.7316 187.185 38.9491L185.844 37.4649ZM183.541 38H175.895V40H183.541V38ZM175.895 38C174.6 38 173.91 37.7432 173.579 37.4545L172.262 38.9596C173.141 39.7281 174.433 40 175.895 40V38ZM173.604 37.4768C173.239 37.1353 173.043 36.7005 173.043 36.083H171.043C171.043 37.2025 171.432 38.1838 172.238 38.9373L173.604 37.4768ZM173.043 36.083C173.043 35.4917 173.233 35.0809 173.591 34.7577L172.251 33.2735C171.438 34.0076 171.043 34.9751 171.043 36.083H173.043ZM173.592 34.7566C173.922 34.4582 174.606 34.1943 175.895 34.1943V32.1943C174.427 32.1943 173.129 32.478 172.249 33.2746L173.592 34.7566ZM175.895 34.1943H178.019V32.1943H175.895V34.1943ZM179.019 33.1943V15.8906H177.019V33.1943H179.019ZM177.105 15.484L170.45 30.4371L172.277 31.2504L178.932 16.2972L177.105 15.484ZM171.363 29.8438H166.322V31.8438H171.363V29.8438ZM167.234 30.4328L160.494 15.4797L158.67 16.3016L165.411 31.2547L167.234 30.4328ZM193.988 33.1943L193.972 34.1942L194.988 34.2101V33.1943H193.988ZM193.988 10.4814H194.988V9.49671L194.003 9.48156L193.988 10.4814ZM191.269 9.66016L190.586 10.3904L190.592 10.3964L190.599 10.4023L191.269 9.66016ZM191.269 5.46875L191.939 6.21085L191.941 6.20974L191.269 5.46875ZM194.271 4.64746L194.273 3.64746H194.271V4.64746ZM206.421 4.67578L206.418 5.67578H206.421V4.67578ZM211.943 5.72363L211.58 6.65546L211.583 6.65673L211.943 5.72363ZM216.304 8.38574L215.603 9.09897L215.605 9.10093L216.304 8.38574ZM218.881 11.7275L218.034 12.2586L218.039 12.2666L218.881 11.7275ZM220.354 30.3906L221.269 30.7934L221.271 30.79L220.354 30.3906ZM217.069 35.0352L217.733 35.7831L217.733 35.7826L217.069 35.0352ZM213.274 37.6689L213.699 38.574L213.704 38.5718L213.274 37.6689ZM191.269 38.207L190.586 38.9373L190.598 38.9487L190.611 38.9596L191.269 38.207ZM191.269 33.9873L190.598 33.2463L190.592 33.2516L190.586 33.257L191.269 33.9873ZM199.794 33.1943H198.794V34.1943H199.794V33.1943ZM211.178 32.2031L211.67 33.074L211.672 33.0727L211.178 32.2031ZM214.747 16.1172L215.639 15.6651L215.638 15.6637L214.747 16.1172ZM211.037 11.6992L210.524 12.5578L210.531 12.5619L210.538 12.566L211.037 11.6992ZM199.794 10.4814V9.48145H198.794V10.4814H199.794ZM194.988 33.1943V10.4814H192.988V33.1943H194.988ZM194.003 9.48156C192.89 9.46443 192.268 9.21486 191.939 8.91805L190.599 10.4023C191.441 11.1627 192.632 11.4607 193.973 11.4813L194.003 9.48156ZM191.952 8.92988C191.582 8.58382 191.391 8.15594 191.391 7.56445H189.391C189.391 8.67219 189.785 9.64144 190.586 10.3904L191.952 8.92988ZM191.391 7.56445C191.391 6.94687 191.587 6.52948 191.939 6.21085L190.599 4.72665C189.781 5.46531 189.391 6.44506 189.391 7.56445H191.391ZM191.941 6.20974C192.268 5.91304 192.959 5.64746 194.271 5.64746V3.64746C192.789 3.64746 191.479 3.92941 190.598 4.72776L191.941 6.20974ZM194.269 5.64746L206.418 5.67578L206.423 3.67578L194.273 3.64746L194.269 5.64746ZM206.421 5.67578C208.182 5.67578 209.9 6.00105 211.58 6.65545L212.306 4.79181C210.399 4.04908 208.435 3.67578 206.421 3.67578V5.67578ZM211.583 6.65673C213.301 7.31869 214.628 8.14046 215.603 9.09897L217.005 7.67251C215.79 6.47869 214.21 5.52571 212.303 4.79054L211.583 6.65673ZM215.605 9.10093C216.361 9.83918 217.172 10.883 218.034 12.2586L219.729 11.1965C218.816 9.74002 217.909 8.556 217.003 7.67056L215.605 9.10093ZM218.039 12.2666C218.906 13.6209 219.546 14.9505 219.969 16.2558L221.872 15.6388C221.389 14.1497 220.669 12.6662 219.724 11.1885L218.039 12.2666ZM219.969 16.2558C220.381 17.5237 220.6 19.1214 220.6 21.0732H222.6C222.6 18.9847 222.367 17.1651 221.872 15.6388L219.969 16.2558ZM220.6 21.0732V23.8486H222.6V21.0732H220.6ZM220.6 23.8486C220.6 26.19 220.204 28.2309 219.437 29.9912L221.271 30.79C222.165 28.7365 222.6 26.4161 222.6 23.8486H220.6ZM219.439 29.9879C218.658 31.762 217.643 33.187 216.405 34.2877L217.733 35.7826C219.214 34.4667 220.389 32.7953 221.269 30.7934L219.439 29.9879ZM216.405 34.2872C215.112 35.4351 213.924 36.2516 212.844 36.7661L213.704 38.5718C215.002 37.9535 216.345 37.0142 217.733 35.7831L216.405 34.2872ZM212.849 36.7639C211.139 37.5675 208.854 38 205.939 38V40C209.028 40 211.633 39.5451 213.699 38.574L212.849 36.7639ZM205.939 38H194.271V40H205.939V38ZM194.271 38C192.953 38 192.256 37.7416 191.928 37.4545L190.611 38.9596C191.491 39.7297 192.795 40 194.271 40V38ZM191.952 37.4768C191.587 37.1353 191.391 36.7005 191.391 36.083H189.391C189.391 37.2025 189.78 38.1838 190.586 38.9373L191.952 37.4768ZM191.391 36.083C191.391 35.4915 191.582 35.0636 191.952 34.7176L190.586 33.257C189.785 34.006 189.391 34.9753 189.391 36.083H191.391ZM191.941 34.7283C192.284 34.4175 192.897 34.1774 193.972 34.1942L194.004 32.1945C192.662 32.1735 191.463 32.462 190.598 33.2463L191.941 34.7283ZM199.794 34.1943H205.967V32.1943H199.794V34.1943ZM205.967 34.1943C208.336 34.1943 210.277 33.86 211.67 33.0739L210.687 31.3323C209.738 31.8678 208.206 32.1943 205.967 32.1943V34.1943ZM211.672 33.0727C213.335 32.1285 214.625 30.9044 215.499 29.3897L213.767 28.3896C213.094 29.5559 212.081 30.5407 210.684 31.3336L211.672 33.0727ZM215.499 29.3897C216.388 27.8503 216.795 25.9243 216.795 23.6787H214.795C214.795 25.7001 214.427 27.248 213.767 28.3896L215.499 29.3897ZM216.795 23.6787V20.9316H214.795V23.6787H216.795ZM216.795 20.9316C216.795 18.9721 216.42 17.2072 215.639 15.6651L213.855 16.5693C214.47 17.7837 214.795 19.2284 214.795 20.9316H216.795ZM215.638 15.6637C214.497 13.422 213.148 11.7602 211.535 10.8324L210.538 12.566C211.682 13.2242 212.806 14.5077 213.855 16.5706L215.638 15.6637ZM211.549 10.8407C209.995 9.91243 208.096 9.48145 205.911 9.48145V11.4814C207.841 11.4814 209.359 11.8623 210.524 12.5578L211.549 10.8407ZM205.911 9.48145H199.794V11.4814H205.911V9.48145ZM198.794 10.4814V33.1943H200.794V10.4814H198.794ZM242.865 10.4814V9.48145H241.865V10.4814H242.865ZM242.865 33.1943H241.865V34.1943H242.865V33.1943ZM255.383 33.1943V34.1943H256.383V33.1943H255.383ZM256.176 24.7266L255.435 24.055L255.434 24.0563L256.176 24.7266ZM260.367 24.7266L259.615 25.3851L259.626 25.3976L259.637 25.4097L260.367 24.7266ZM261.189 39V40H262.189V39H261.189ZM230.688 38.207L230.004 38.9373L230.017 38.9487L230.029 38.9596L230.688 38.207ZM230.688 34.0156L231.358 34.7577L231.359 34.7566L230.688 34.0156ZM237.06 33.1943V34.1943H238.06V33.1943H237.06ZM237.06 10.4814H238.06V9.48145H237.06V10.4814ZM230.688 9.68848L230.004 10.4187L230.017 10.4301L230.029 10.4411L230.688 9.68848ZM230.688 5.46875L231.358 6.21085L231.359 6.20974L230.688 5.46875ZM233.69 4.64746L233.692 3.64746H233.69V4.64746ZM246.264 4.67578L246.262 5.67578H246.264V4.67578ZM249.237 5.46875L248.567 6.21085L248.573 6.21614L248.579 6.22133L249.237 5.46875ZM249.237 9.68848L249.908 10.4306L249.909 10.4295L249.237 9.68848ZM241.865 10.4814V33.1943H243.865V10.4814H241.865ZM242.865 34.1943H255.383V32.1943H242.865V34.1943ZM256.383 33.1943V27.7002H254.383V33.1943H256.383ZM256.383 27.7002C256.383 26.3775 256.643 25.7011 256.918 25.3969L255.434 24.0563C254.651 24.9226 254.383 26.2287 254.383 27.7002H256.383ZM256.917 25.3981C257.261 25.018 257.693 24.8203 258.3 24.8203V22.8203C257.17 22.8203 256.185 23.2268 255.435 24.055L256.917 25.3981ZM258.3 24.8203C258.88 24.8203 259.288 25.0119 259.615 25.3851L261.12 24.0681C260.389 23.2329 259.419 22.8203 258.3 22.8203V24.8203ZM259.637 25.4097C259.921 25.7134 260.189 26.3837 260.189 27.7002H262.189C262.189 26.2224 261.909 24.9103 261.098 24.0434L259.637 25.4097ZM260.189 27.7002V39H262.189V27.7002H260.189ZM261.189 38H233.69V40H261.189V38ZM233.69 38C232.371 38 231.674 37.7416 231.346 37.4545L230.029 38.9596C230.909 39.7297 232.213 40 233.69 40V38ZM231.371 37.4768C231.006 37.1353 230.81 36.7005 230.81 36.083H228.81C228.81 37.2025 229.199 38.1838 230.004 38.9373L231.371 37.4768ZM230.81 36.083C230.81 35.4917 231 35.0809 231.358 34.7577L230.017 33.2735C229.205 34.0076 228.81 34.9751 228.81 36.083H230.81ZM231.359 34.7566C231.687 34.4599 232.378 34.1943 233.69 34.1943V32.1943C232.207 32.1943 230.897 32.4763 230.016 33.2746L231.359 34.7566ZM233.69 34.1943H237.06V32.1943H233.69V34.1943ZM238.06 33.1943V10.4814H236.06V33.1943H238.06ZM237.06 9.48145H233.69V11.4814H237.06V9.48145ZM233.69 9.48145C232.371 9.48145 231.674 9.22308 231.346 8.9359L230.029 10.4411C230.909 11.2112 232.213 11.4814 233.69 11.4814V9.48145ZM231.371 8.9582C231.006 8.6167 230.81 8.18197 230.81 7.56445H228.81C228.81 8.68391 229.199 9.6652 230.004 10.4187L231.371 8.9582ZM230.81 7.56445C230.81 6.94687 231.005 6.52948 231.358 6.21085L230.017 4.72665C229.2 5.46531 228.81 6.44506 228.81 7.56445H230.81ZM231.359 6.20974C231.687 5.91304 232.378 5.64746 233.69 5.64746V3.64746C232.207 3.64746 230.897 3.92941 230.016 4.72776L231.359 6.20974ZM233.687 5.64746L246.262 5.67578L246.266 3.67578L233.692 3.64746L233.687 5.64746ZM246.264 5.67578C247.587 5.67578 248.263 5.93603 248.567 6.21085L249.908 4.72665C249.041 3.94418 247.735 3.67578 246.264 3.67578V5.67578ZM248.579 6.22133C248.947 6.54323 249.144 6.9577 249.144 7.56445H251.144C251.144 6.43423 250.736 5.45156 249.896 4.71617L248.579 6.22133ZM249.144 7.56445C249.144 8.17138 248.946 8.60301 248.566 8.94749L249.909 10.4295C250.737 9.67889 251.144 8.69451 251.144 7.56445H249.144ZM248.567 8.94637C248.263 9.2212 247.587 9.48145 246.264 9.48145V11.4814C247.735 11.4814 249.041 11.213 249.908 10.4306L248.567 8.94637ZM246.264 9.48145H242.865V11.4814H246.264V9.48145Z" fill="#E37CB0"/>
</svg>
