<svg width="25" height="30" viewBox="0 0 25 30" fill="none" xmlns="http://www.w3.org/2000/svg"><path d="M20.45 15.958c-.032-3.793 3.105-5.637 3.243-5.722-1.78-2.586-4.536-2.946-5.5-2.978-2.31-.243-4.556 1.389-5.733 1.389-1.197 0-3.02-1.357-4.97-1.325-2.51.042-4.873 1.494-6.156 3.762-2.66 4.61-.678 11.39 1.876 15.12 1.282 1.823 2.766 3.868 4.726 3.794 1.907-.074 2.628-1.219 4.927-1.219 2.289 0 2.957 1.219 4.949 1.177 2.055-.032 3.337-1.834 4.577-3.677 1.473-2.088 2.067-4.154 2.088-4.26-.053-.021-3.985-1.526-4.027-6.061zM16.688 4.81C17.716 3.53 18.416 1.78 18.225 0c-1.484.064-3.349 1.028-4.419 2.289-.943 1.112-1.79 2.924-1.579 4.63 1.675.128 3.391-.847 4.461-2.108z" fill="#fff"/></svg>
