<svg width="430" height="390" viewBox="0 0 430 390" fill="none" xmlns="http://www.w3.org/2000/svg"><circle cx="23.951" cy="105.748" r="4.634" transform="rotate(105.896 23.95 105.748)" fill="#000201"/><circle cx="109.894" cy="22.089" r="4.634" transform="rotate(105.896 109.894 22.09)" fill="#000201"/><circle cx="187.072" cy="120.577" r="4.634" transform="rotate(105.896 187.072 120.577)" fill="#000201"/><circle cx="116.575" cy="93.378" r="4.634" transform="rotate(105.896 116.575 93.378)" fill="#000201"/><circle cx="60.363" cy="162.173" r="4.634" transform="rotate(105.896 60.363 162.173)" fill="#000201"/><circle cx="77.447" cy="190.167" r="4.634" transform="rotate(105.896 77.447 190.167)" fill="#000201"/><circle cx="18.306" cy="167.284" r="4.634" transform="rotate(105.896 18.306 167.284)" fill="#000201"/><path d="M60.364 162.174l-34.725-53.811" stroke="#000" stroke-linecap="round" stroke-dasharray="0.02 3"/><path d="M60.363 162.174l56.212-68.796M60.362 162.174l15.81 25.703M60.363 162.173l-39.12 4.779M116.575 93.378l-7.189-69.505M116.575 93.377l71.259 27.034" stroke="#000"/><circle cx="248.916" cy="323.134" r="4.634" transform="rotate(65.707 248.916 323.134)" fill="#000201"/><circle cx="260.583" cy="203.766" r="4.634" transform="rotate(65.707 260.583 203.766)" fill="#000201"/><circle cx="383.097" cy="229.198" r="4.634" transform="rotate(65.707 383.097 229.198)" fill="#000201"/><circle cx="311.691" cy="253.912" r="4.634" transform="rotate(65.707 311.691 253.912)" fill="#000201"/><circle cx="313.145" cy="342.741" r="4.634" transform="rotate(65.707 313.145 342.741)" fill="#000201"/><circle cx="344.26" cy="353.101" r="4.634" transform="rotate(65.707 344.26 353.101)" fill="#000201"/><circle cx="284.315" cy="373.784" r="4.634" transform="rotate(65.707 284.315 373.784)" fill="#000201"/><path d="M313.144 342.741l-61.251-18.699M313.144 342.741l-1.454-88.829M313.145 342.741l28.663 9.434M313.145 342.741l-26.8 28.895M311.69 253.912l-50.344-48.456M311.69 253.912l71.881-25.333" stroke="#000"/><circle cx="318.822" cy="93.615" r="3.965" transform="rotate(14.307 318.822 93.615)" fill="#000201"/><circle cx="366.22" cy="61.132" r="3.965" transform="rotate(14.307 366.22 61.132)" fill="#000201"/><circle cx="389.759" cy="45.856" r="3.965" transform="rotate(14.307 389.759 45.856)" fill="#000201"/><circle cx="371.589" cy="96.983" r="3.965" transform="rotate(14.307 371.589 96.983)" fill="#000201"/><path d="M366.22 61.132L321.019 92.11" stroke="#000" stroke-linecap="round" stroke-dasharray="0.02 3"/><path d="M366.22 61.132l21.609-14.13M366.22 61.132l5.015 33.346" stroke="#000"/></svg>
