<svg width="30" height="34" viewBox="0 0 30 34" fill="none" xmlns="http://www.w3.org/2000/svg"><path d="M18 14.667c6.627 0 12-1.791 12-4 0-2.21-5.373-4-12-4s-12 1.79-12 4c0 2.209 5.373 4 12 4zM30 20c0 2.213-5.333 4-12 4S6 22.213 6 20" fill="#E37CB0"/><path d="M6 10.667v18.666c0 2.214 5.333 4 12 4s12-1.786 12-4V10.667" fill="#E37CB0"/><path d="M13 9.667c6.627 0 12-1.791 12-4 0-2.21-5.373-4-12-4s-12 1.79-12 4c0 2.209 5.373 4 12 4zM25 15c0 2.213-5.333 4-12 4S1 17.213 1 15" stroke="#000201" stroke-width="2" stroke-linecap="round" stroke-linejoin="round"/><path d="M1 5.667v18.666c0 2.214 5.333 4 12 4s12-1.786 12-4V5.667" stroke="#000201" stroke-width="2" stroke-linecap="round" stroke-linejoin="round"/></svg>
