<svg width="163" height="40" viewBox="0 0 163 40" fill="none" xmlns="http://www.w3.org/2000/svg">
    <mask id="mask0" mask-type="alpha" maskUnits="userSpaceOnUse" x="0" y="0" width="41" height="40">
        <circle cx="20.0001" cy="20" r="20" fill="#C4C4C4"/>
    </mask>
    <g mask="url(#mask0)">
        <mask id="mask1" mask-type="alpha" maskUnits="userSpaceOnUse" x="0" y="0" width="41" height="40">
            <rect x="0.00012207" width="40" height="40" fill="#C4C4C4"/>
        </mask>
        <g>
            <rect x="0.00012207" width="40" height="40" fill="url(#paint0_linear)"/>
            <rect x="37.3824" y="37.3822" width="34.7103" height="34.7103" rx="17.3551" transform="rotate(180 37.3824 37.3822)" fill="url(#paint1_linear)"/>
            <path fill-rule="evenodd" clip-rule="evenodd" d="M26.3537 13.9247C27.7077 14.8528 28.9849 16.4229 28.7285 18.6878C29.4963 19.3219 29.9261 20.1208 30.2025 20.6732C30.2885 20.8318 30.3948 20.9819 30.519 21.1574C30.5589 21.2138 30.6006 21.2727 30.6441 21.3354C30.8127 21.5781 30.9992 21.8668 31.1079 22.1988C31.2209 22.5437 31.248 22.9275 31.1157 23.3527C30.9921 23.7497 30.7377 24.1569 30.3347 24.59C29.798 25.8319 28.8471 26.5616 27.7859 26.7992C27.6142 27.2906 27.3362 27.8131 26.8815 28.2214C26.3321 28.7147 25.5651 29.0049 24.5344 28.9229C23.8224 28.8716 23.2291 28.5563 22.804 28.1736C22.644 28.811 22.4396 29.3373 22.1392 29.8402C21.7089 30.5607 21.0971 31.2059 20.209 32.057C20.102 32.1596 19.9501 32.2004 19.806 32.1655C19.662 32.1305 19.5458 32.0244 19.4978 31.8842C18.6038 29.2737 17.2891 27.7659 15.8787 26.5966C15.2803 26.1004 14.6673 25.6671 14.0484 25.2296C13.9285 25.1448 13.8084 25.0599 13.6881 24.9743C12.9535 24.4518 12.2185 23.9088 11.546 23.2555L11.5415 23.2511L11.5373 23.2469C10.9351 22.6447 9.68322 21.3928 9.13592 19.2818L9.13363 19.2725C8.32466 15.8441 9.24962 13.1364 10.8205 11.2338C12.3761 9.3497 14.5617 8.25828 16.2984 8.02082C19.6769 7.52776 22.2738 8.22376 23.9912 9.47727C25.6089 10.658 26.4432 12.3389 26.3537 13.9247ZM23.4792 10.1787C21.9804 9.08474 19.6236 8.41278 16.422 8.88044L16.4179 8.88104L16.4179 8.88102C14.9013 9.08782 12.9102 10.0667 11.4901 11.7867C10.0854 13.4881 9.23582 15.9181 9.97776 19.0684C10.4644 20.9404 11.5707 22.0521 12.1533 22.6347C12.7743 23.2376 13.4619 23.7477 14.1915 24.2667C14.3076 24.3492 14.4249 24.4322 14.5431 24.5157C15.1621 24.9532 15.8065 25.4087 16.433 25.928C17.8244 27.0817 19.1401 28.5599 20.0851 30.9648C20.6954 30.3562 21.0997 29.8871 21.3936 29.3949C21.7524 28.7942 21.9621 28.1322 22.1427 27.0851C22.1754 26.8956 22.3288 26.7501 22.5199 26.7277C22.7109 26.7052 22.8939 26.8111 22.9697 26.9879C23.1355 27.3747 23.7442 27.9958 24.598 28.0568L24.6017 28.0571L24.6017 28.0571C25.4187 28.1224 25.9451 27.8951 26.3012 27.5753C26.6707 27.2435 26.8979 26.7747 27.0334 26.3002C27.0805 26.1355 27.22 26.0138 27.3895 25.9896C28.2687 25.864 29.103 25.3022 29.5636 24.1837C29.5842 24.1336 29.6139 24.0879 29.6513 24.0488C30.0292 23.6537 30.21 23.3404 30.2865 23.0946C30.3598 22.8588 30.3453 22.6604 30.2826 22.4692C30.2158 22.2651 30.0926 22.0638 29.9307 21.8306C29.8992 21.7851 29.8653 21.7374 29.8302 21.6879C29.6986 21.5024 29.5492 21.2918 29.4349 21.0794C29.4328 21.0756 29.4308 21.0717 29.4288 21.0678C29.1376 20.4852 28.7323 19.7543 28.009 19.2282C27.8766 19.132 27.8096 18.9695 27.8357 18.8079C28.1668 16.7551 26.9925 15.3493 25.6662 14.5117C25.5239 14.4218 25.4464 14.2577 25.4672 14.0907C25.629 12.7966 24.9847 11.2776 23.4792 10.1787Z" fill="#000201"/>
            <path fill-rule="evenodd" clip-rule="evenodd" d="M22.95 14.3461C23.0093 13.1025 21.7489 12.0494 20.3923 12.4194L20.3841 12.4217L20.3757 12.4236C18.846 12.7766 18.3767 15.0175 19.8534 16.002C20.053 16.135 20.1069 16.4046 19.9739 16.6041C19.8408 16.8037 19.5712 16.8576 19.3717 16.7245C17.3016 15.3445 17.8636 12.1195 20.1721 11.5793C22.0661 11.0684 23.906 12.5279 23.8175 14.3874C23.8061 14.6269 23.6027 14.8119 23.3631 14.8005C23.1236 14.7891 22.9386 14.5856 22.95 14.3461Z" fill="#000201"/>
            <path fill-rule="evenodd" clip-rule="evenodd" d="M21.0159 13.8462C21.2216 13.7228 21.4883 13.7895 21.6117 13.9951C21.873 14.4307 22.1452 15.1502 21.8771 16.044C21.8082 16.2737 21.5661 16.4041 21.3364 16.3352C21.1067 16.2663 20.9764 16.0242 21.0453 15.7945C21.2208 15.2094 21.0493 14.7458 20.867 14.4419C20.7436 14.2363 20.8103 13.9696 21.0159 13.8462Z" fill="#000201"/>
            <path fill-rule="evenodd" clip-rule="evenodd" d="M29.6584 22.7402C29.8935 22.6932 30.1223 22.8457 30.1693 23.0808C30.1933 23.2006 30.2245 23.3148 30.259 23.4412C30.2729 23.4921 30.2874 23.5449 30.3021 23.6008C30.3484 23.7769 30.3996 23.9916 30.3996 24.2012C30.3996 24.441 30.2052 24.6354 29.9653 24.6354C29.7255 24.6354 29.5311 24.441 29.5311 24.2012C29.5311 24.115 29.5083 23.997 29.4622 23.8218C29.4521 23.7832 29.4405 23.7411 29.4283 23.6965C29.3913 23.5611 29.3481 23.403 29.3177 23.2512C29.2707 23.016 29.4232 22.7872 29.6584 22.7402Z" fill="#000201"/>
            <path fill-rule="evenodd" clip-rule="evenodd" d="M26.1497 24.7435C26.2995 24.5562 26.5728 24.5259 26.7601 24.6757C26.9825 24.8536 27.2295 25.1243 27.4293 25.3941C27.6187 25.6498 27.8187 25.9746 27.8759 26.2606C27.9229 26.4958 27.7704 26.7245 27.5353 26.7715C27.3001 26.8186 27.0713 26.6661 27.0243 26.4309C27.0075 26.3471 26.9117 26.1544 26.7314 25.911C26.5615 25.6816 26.3649 25.4717 26.2175 25.3538C26.0303 25.204 25.9999 24.9308 26.1497 24.7435Z" fill="#000201"/>
            <path fill-rule="evenodd" clip-rule="evenodd" d="M22.3228 23.7791C22.5562 23.7242 22.79 23.8689 22.8449 24.1023C23.1601 25.4418 23.0013 26.8411 22.927 27.4353C22.8973 27.6732 22.6803 27.842 22.4423 27.8123C22.2044 27.7825 22.0356 27.5655 22.0653 27.3276C22.1389 26.7386 22.276 25.4759 21.9996 24.3012C21.9446 24.0678 22.0893 23.834 22.3228 23.7791Z" fill="#000201"/>
            <path fill-rule="evenodd" clip-rule="evenodd" d="M25.3616 18.6824C25.4689 18.468 25.7297 18.381 25.9442 18.4883C26.1087 18.5705 26.1857 18.5867 26.3344 18.618C26.4016 18.6322 26.4835 18.6494 26.5948 18.6772C26.8274 18.7354 26.9689 18.9711 26.9107 19.2038C26.8525 19.4364 26.6168 19.5779 26.3841 19.5197C26.3298 19.5061 26.2751 19.4946 26.2186 19.4828C26.0319 19.4436 25.8266 19.4004 25.5558 19.265C25.3413 19.1578 25.2544 18.8969 25.3616 18.6824Z" fill="#000201"/>
            <path fill-rule="evenodd" clip-rule="evenodd" d="M18.8269 14.6675C18.9873 14.8457 18.9728 15.1203 18.7946 15.2807C18.5308 15.5182 18.2927 16.02 18.3005 16.5881C18.3079 17.1301 18.5396 17.7123 19.1863 18.1445C20.5155 19.0052 21.456 20.1063 22.1537 21.6567C22.2521 21.8754 22.1546 22.1324 21.9359 22.2308C21.7172 22.3293 21.4601 22.2317 21.3617 22.0131C20.7289 20.6067 19.8954 19.6377 18.7119 18.8719L18.7069 18.8687L18.7069 18.8686C17.8026 18.2657 17.4432 17.4068 17.4321 16.6C17.4214 15.8185 17.738 15.0633 18.2136 14.6352C18.3919 14.4748 18.6664 14.4892 18.8269 14.6675Z" fill="#000201"/>
            <path fill-rule="evenodd" clip-rule="evenodd" d="M13.281 15.379C14.1335 13.0924 16.5846 11.3427 19.5511 11.944C19.7861 11.9916 19.938 12.2208 19.8904 12.4558C19.8427 12.6908 19.6136 12.8428 19.3785 12.7951C16.8731 12.2873 14.8136 13.7542 14.0947 15.6824C13.7368 16.6425 13.7169 17.7053 14.1348 18.6884C14.5515 19.6686 15.4204 20.6086 16.9099 21.292L16.9211 21.2971L16.932 21.3029C18.8716 22.3298 20.1196 23.4882 20.9354 24.825C21.7477 26.156 22.1099 27.6291 22.3351 29.243C22.3682 29.4805 22.2025 29.6999 21.965 29.7331C21.7275 29.7662 21.5081 29.6005 21.4749 29.363C21.2565 27.7973 20.9161 26.4605 20.1941 25.2774C19.477 24.1023 18.3616 23.0442 16.5363 22.0761C14.8898 21.3178 13.8489 20.2357 13.3356 19.0281C12.8223 17.8206 12.8532 16.5264 13.281 15.379Z" fill="#000201"/>
        </g>
    </g>
    <path d="M63.1212 17.4941C63.3621 17.2663 63.6095 17.1523 63.8634 17.1523C64.1499 17.1523 64.3842 17.2565 64.5665 17.4648C64.7553 17.6667 64.8497 18.0052 64.8497 18.4805V19.7695C64.8497 20.2513 64.7553 20.5931 64.5665 20.7949C64.3842 20.9967 64.1434 21.0977 63.8439 21.0977C63.5704 21.0977 63.3393 21.0195 63.1505 20.8633C63.0138 20.7461 62.9064 20.5085 62.8282 20.1504C62.7501 19.7858 62.5613 19.5156 62.2618 19.3398C61.7345 19.0273 61.0607 18.8711 60.2404 18.8711C59.2963 18.8711 58.5379 19.1478 57.965 19.7012C57.3986 20.2546 57.1154 20.9544 57.1154 21.8008C57.1154 22.582 57.3888 23.2005 57.9357 23.6562C58.4825 24.1055 59.3907 24.3301 60.6603 24.3301C61.4936 24.3301 62.174 24.2454 62.7013 24.0762C63.0138 23.972 63.31 23.7962 63.59 23.5488C63.8699 23.2949 64.1238 23.168 64.3517 23.168C64.6251 23.168 64.8595 23.2689 65.0548 23.4707C65.2566 23.6725 65.3575 23.9102 65.3575 24.1836C65.3575 24.6263 65.0548 25.0462 64.4493 25.4434C63.5509 26.0358 62.2358 26.332 60.504 26.332C58.948 26.332 57.7371 26.0098 56.8712 25.3652C55.6993 24.4993 55.1134 23.3145 55.1134 21.8105C55.1134 20.3848 55.5887 19.2064 56.5392 18.2754C57.4897 17.3379 58.7299 16.8691 60.2599 16.8691C60.8133 16.8691 61.3276 16.9212 61.8029 17.0254C62.2781 17.1296 62.7176 17.2858 63.1212 17.4941ZM68.8829 18.0312V23.998H69.6056C70.0874 23.998 70.4292 24.0924 70.631 24.2812C70.8393 24.4635 70.9435 24.7044 70.9435 25.0039C70.9435 25.2969 70.8393 25.5378 70.631 25.7266C70.4292 25.9089 70.0874 26 69.6056 26H66.9786C66.4969 26 66.1551 25.9089 65.9532 25.7266C65.7449 25.5378 65.6407 25.2936 65.6407 24.9941C65.6407 24.7012 65.7417 24.4635 65.9435 24.2812C66.1453 24.0924 66.4578 23.998 66.881 23.998V16.166C66.5294 16.1335 66.2625 16.026 66.0802 15.8438C65.9044 15.6615 65.8165 15.4336 65.8165 15.1602C65.8165 14.8607 65.9174 14.6198 66.1193 14.4375C66.3276 14.2487 66.6726 14.1543 67.1544 14.1543L69.3517 14.1641L72.0763 20.1895L74.7521 14.1543L76.9689 14.1641C77.4506 14.1641 77.7924 14.2552 77.9943 14.4375C78.2026 14.6198 78.3068 14.8607 78.3068 15.1602C78.3068 15.4336 78.2156 15.6615 78.0333 15.8438C77.851 16.026 77.5874 16.1335 77.2423 16.166V23.998C77.6655 23.998 77.978 24.0924 78.1798 24.2812C78.3816 24.4701 78.4825 24.7109 78.4825 25.0039C78.4825 25.2969 78.3784 25.5378 78.17 25.7266C77.9682 25.9089 77.6264 26 77.1447 26H74.5079C74.0327 26 73.6909 25.9089 73.4825 25.7266C73.2807 25.5378 73.1798 25.2936 73.1798 24.9941C73.1798 24.7012 73.2807 24.4635 73.4825 24.2812C73.6909 24.0924 74.0327 23.998 74.5079 23.998H75.2404V18.0312L72.9454 23.1875H71.2072L68.8829 18.0312ZM79.547 23.998V16.166C79.1238 16.1595 78.8113 16.0651 78.6095 15.8828C78.4077 15.694 78.3068 15.4531 78.3068 15.1602C78.3068 14.8607 78.4077 14.6198 78.6095 14.4375C78.8178 14.2487 79.1629 14.1543 79.6447 14.1543L83.8341 14.1641C84.4851 14.1641 85.1199 14.2845 85.7384 14.5254C86.3634 14.7663 86.8647 15.0723 87.2423 15.4434C87.5288 15.7233 87.825 16.1074 88.131 16.5957C88.4435 17.084 88.6779 17.569 88.8341 18.0508C88.9904 18.5326 89.0685 19.1217 89.0685 19.8184V20.7754C89.0685 21.6217 88.9253 22.3737 88.6388 23.0312C88.3523 23.6823 87.9747 24.2161 87.506 24.6328C87.0437 25.043 86.6075 25.3457 86.1974 25.541C85.5463 25.847 84.7032 26 83.6681 26H79.6447C79.1629 26 78.8178 25.9089 78.6095 25.7266C78.4077 25.5378 78.3068 25.2936 78.3068 24.9941C78.3068 24.7012 78.4077 24.4603 78.6095 24.2715C78.8178 24.0827 79.1303 23.9915 79.547 23.998ZM81.549 23.998H83.6779C84.4721 23.998 85.0711 23.8841 85.4747 23.6562C86.0021 23.3568 86.3992 22.9759 86.6661 22.5137C86.9331 22.0514 87.0665 21.4525 87.0665 20.7168V19.7695C87.0665 19.138 86.9461 18.5846 86.7052 18.1094C86.3276 17.3672 85.9012 16.8594 85.4259 16.5859C84.9572 16.306 84.368 16.166 83.6583 16.166H81.549V23.998ZM95.2013 16.166V23.998H99.5177V22.1035C99.5177 21.6217 99.6088 21.2799 99.7911 21.0781C99.9799 20.8698 100.224 20.7656 100.524 20.7656C100.817 20.7656 101.054 20.8698 101.236 21.0781C101.425 21.2799 101.52 21.6217 101.52 22.1035V26H92.0372C91.5555 26 91.2104 25.9089 91.0021 25.7266C90.8003 25.5378 90.6993 25.2936 90.6993 24.9941C90.6993 24.7012 90.8003 24.4635 91.0021 24.2812C91.2104 24.0924 91.5555 23.998 92.0372 23.998H93.1993V16.166H92.0372C91.5555 16.166 91.2104 16.0749 91.0021 15.8926C90.8003 15.7038 90.6993 15.4596 90.6993 15.1602C90.6993 14.8607 90.8003 14.6198 91.0021 14.4375C91.2104 14.2487 91.5555 14.1543 92.0372 14.1543L96.3732 14.1641C96.8549 14.1641 97.1967 14.2552 97.3986 14.4375C97.6069 14.6198 97.7111 14.8607 97.7111 15.1602C97.7111 15.4596 97.6069 15.7038 97.3986 15.8926C97.1967 16.0749 96.8549 16.166 96.3732 16.166H95.2013ZM118.688 21.0684V23.998H120.738C121.22 23.998 121.562 24.0924 121.764 24.2812C121.972 24.4635 122.076 24.7044 122.076 25.0039C122.076 25.2969 121.972 25.5378 121.764 25.7266C121.562 25.9089 121.22 26 120.738 26H116.373C115.891 26 115.546 25.9089 115.338 25.7266C115.136 25.5378 115.035 25.2936 115.035 24.9941C115.035 24.7012 115.139 24.4635 115.348 24.2812C115.556 24.0924 115.898 23.998 116.373 23.998H116.686V16.166H116.373C115.891 16.166 115.546 16.0749 115.338 15.8926C115.136 15.7038 115.035 15.4596 115.035 15.1602C115.035 14.8607 115.136 14.6198 115.338 14.4375C115.546 14.2487 115.891 14.1543 116.373 14.1543L125.797 14.1641V17.2207C125.797 17.696 125.703 18.0378 125.514 18.2461C125.332 18.4479 125.091 18.5488 124.791 18.5488C124.498 18.5488 124.257 18.4479 124.068 18.2461C123.886 18.0443 123.795 17.7025 123.795 17.2207V16.166H118.688V19.0664H120.445C120.445 18.5456 120.494 18.2103 120.592 18.0605C120.794 17.7415 121.08 17.582 121.451 17.582C121.744 17.582 121.982 17.6862 122.164 17.8945C122.353 18.0964 122.447 18.4382 122.447 18.9199V21.2246C122.447 21.7064 122.353 22.0514 122.164 22.2598C121.982 22.4616 121.741 22.5625 121.442 22.5625C121.077 22.5625 120.794 22.403 120.592 22.084C120.494 21.9342 120.445 21.5957 120.445 21.0684H118.688ZM131.236 16.166V23.998H135.553V22.1035C135.553 21.6217 135.644 21.2799 135.826 21.0781C136.015 20.8698 136.259 20.7656 136.559 20.7656C136.852 20.7656 137.089 20.8698 137.272 21.0781C137.46 21.2799 137.555 21.6217 137.555 22.1035V26H128.072C127.591 26 127.246 25.9089 127.037 25.7266C126.835 25.5378 126.734 25.2936 126.734 24.9941C126.734 24.7012 126.835 24.4635 127.037 24.2812C127.246 24.0924 127.591 23.998 128.072 23.998H129.234V16.166H128.072C127.591 16.166 127.246 16.0749 127.037 15.8926C126.835 15.7038 126.734 15.4596 126.734 15.1602C126.734 14.8607 126.835 14.6198 127.037 14.4375C127.246 14.2487 127.591 14.1543 128.072 14.1543L132.408 14.1641C132.89 14.1641 133.232 14.2552 133.434 14.4375C133.642 14.6198 133.746 14.8607 133.746 15.1602C133.746 15.4596 133.642 15.7038 133.434 15.8926C133.232 16.0749 132.89 16.166 132.408 16.166H131.236ZM145.084 16.166V23.998H147.106C147.587 23.998 147.929 24.0924 148.131 24.2812C148.339 24.4635 148.443 24.7044 148.443 25.0039C148.443 25.2969 148.339 25.5378 148.131 25.7266C147.929 25.9089 147.587 26 147.106 26H141.061C140.579 26 140.234 25.9089 140.026 25.7266C139.824 25.5378 139.723 25.2936 139.723 24.9941C139.723 24.7012 139.824 24.4635 140.026 24.2812C140.234 24.0924 140.579 23.998 141.061 23.998H143.082V16.166H141.061C140.579 16.166 140.234 16.0749 140.026 15.8926C139.824 15.7038 139.723 15.4596 139.723 15.1602C139.723 14.8607 139.824 14.6198 140.026 14.4375C140.234 14.2487 140.579 14.1543 141.061 14.1543L147.106 14.1641C147.587 14.1641 147.929 14.2552 148.131 14.4375C148.339 14.6198 148.443 14.8607 148.443 15.1602C148.443 15.4596 148.339 15.7038 148.131 15.8926C147.929 16.0749 147.587 16.166 147.106 16.166H145.084ZM154.938 21.9375V23.998H156.959C157.441 23.998 157.783 24.0924 157.984 24.2812C158.193 24.4635 158.297 24.7044 158.297 25.0039C158.297 25.2969 158.193 25.5378 157.984 25.7266C157.783 25.9089 157.441 26 156.959 26H152.623C152.141 26 151.796 25.9089 151.588 25.7266C151.386 25.5378 151.285 25.2936 151.285 24.9941C151.285 24.7012 151.389 24.4635 151.598 24.2812C151.806 24.0924 152.148 23.998 152.623 23.998H152.936V16.166H152.623C152.141 16.166 151.796 16.0749 151.588 15.8926C151.386 15.7038 151.285 15.4596 151.285 15.1602C151.285 14.8607 151.386 14.6198 151.588 14.4375C151.796 14.2487 152.141 14.1543 152.623 14.1543L157.233 14.1641C158.587 14.1641 159.658 14.5352 160.445 15.2773C161.24 16.013 161.637 16.9115 161.637 17.9727C161.637 18.5586 161.503 19.112 161.236 19.6328C161.035 20.0234 160.696 20.4108 160.221 20.7949C159.752 21.1725 159.27 21.459 158.776 21.6543C158.287 21.8431 157.639 21.9375 156.832 21.9375H154.938ZM154.938 19.9355H156.793C157.665 19.9355 158.356 19.7402 158.863 19.3496C159.378 18.9525 159.635 18.4772 159.635 17.9238C159.635 17.4551 159.427 17.0449 159.01 16.6934C158.6 16.3418 158.011 16.166 157.242 16.166H154.938V19.9355Z" fill="#3DC5AC"/>
    <defs>
        <linearGradient id="paint0_linear" x1="20.9376" y1="40.7422" x2="20.9376" y2="-1.75781" gradientUnits="userSpaceOnUse">
            <stop stop-color="#1B967F"/>
            <stop offset="0.665454" stop-color="#46D8BD"/>
            <stop offset="1" stop-color="#8FF5E3"/>
        </linearGradient>
        <linearGradient id="paint1_linear" x1="55.5511" y1="72.7365" x2="55.5511" y2="35.8568" gradientUnits="userSpaceOnUse">
            <stop stop-color="#1B967F"/>
            <stop offset="0.665454" stop-color="#46D8BD"/>
            <stop offset="1" stop-color="#8FF5E3"/>
        </linearGradient>
    </defs>
</svg>
