<svg width="20" height="20" viewBox="0 0 20 20" fill="none" xmlns="http://www.w3.org/2000/svg">
    <mask id="mask-small-0" mask-type="alpha" maskUnits="userSpaceOnUse" x="0" y="0" width="21" height="20">
        <circle cx="10.0001" cy="10" r="10" fill="#C4C4C4"/>
    </mask>
    <g mask="url(#mask-small-0)">
        <mask id="mask-small-1" mask-type="alpha" maskUnits="userSpaceOnUse" x="0" y="0" width="21" height="20">
            <rect x="0.00012207" width="20" height="20" fill="#C4C4C4"/>
        </mask>
        <g mask="url(#mask-small-1)">
            <rect x="0.00012207" width="20" height="20" fill="url(#paint0_linear)"/>
            <rect x="18.6915" y="18.6911" width="17.3551" height="17.3551" rx="8.67756" transform="rotate(180 18.6915 18.6911)" fill="url(#paint1_linear)"/>
            <path fill-rule="evenodd" clip-rule="evenodd" d="M13.1775 6.96237C13.8544 7.42642 14.4931 8.21146 14.3649 9.34394C14.7487 9.66101 14.9637 10.0604 15.1019 10.3366C15.1448 10.4159 15.198 10.491 15.2601 10.5787C15.2801 10.6069 15.3009 10.6364 15.3227 10.6677C15.4069 10.7891 15.5002 10.9334 15.5546 11.0994C15.6111 11.2719 15.6246 11.4638 15.5585 11.6764C15.4967 11.8749 15.3695 12.0785 15.1679 12.295C14.8996 12.916 14.4241 13.2808 13.8936 13.3997C13.8077 13.6453 13.6687 13.9066 13.4413 14.1108C13.1667 14.3574 12.7831 14.5025 12.2678 14.4615C11.9118 14.4358 11.6152 14.2782 11.4026 14.0868C11.3226 14.4055 11.2204 14.6687 11.0702 14.9201C10.8551 15.2804 10.5492 15.603 10.1051 16.0285C10.0516 16.0798 9.97564 16.1003 9.90363 16.0828C9.83161 16.0653 9.7735 16.0122 9.74949 15.9421C9.30249 14.6369 8.64514 13.883 7.93996 13.2983C7.64076 13.0503 7.33428 12.8336 7.02481 12.6148C6.96486 12.5724 6.9048 12.53 6.84466 12.4872C6.47737 12.2259 6.10985 11.9544 5.7736 11.6278L5.77136 11.6256L5.76928 11.6235C5.46816 11.3224 4.84222 10.6964 4.56857 9.64093L4.56742 9.6363C4.16294 7.92206 4.62542 6.56821 5.41084 5.61693C6.18864 4.67488 7.28147 4.12917 8.14984 4.01044C9.83907 3.76391 11.1375 4.11191 11.9962 4.73867C12.8051 5.32903 13.2222 6.16948 13.1775 6.96237ZM11.7402 5.0894C10.9908 4.5424 9.81242 4.20642 8.21159 4.44025L8.20954 4.44055L8.20954 4.44054C7.45128 4.54394 6.45573 5.0334 5.74568 5.89339C5.04331 6.7441 4.61852 7.95907 4.98949 9.53425C5.23282 10.4702 5.78596 11.0261 6.07727 11.3174C6.38775 11.6188 6.73157 11.8739 7.09636 12.1334C7.1544 12.1747 7.21305 12.2161 7.27217 12.2579C7.58168 12.4766 7.90388 12.7044 8.21711 12.9641C8.91281 13.5409 9.57067 14.28 10.0432 15.4824C10.3483 15.1782 10.5504 14.9436 10.6974 14.6975C10.8768 14.3972 10.9817 14.0661 11.0719 13.5426C11.0883 13.4478 11.165 13.3751 11.2605 13.3639C11.3561 13.3526 11.4476 13.4056 11.4855 13.494C11.5684 13.6874 11.8727 13.9979 12.2996 14.0284L12.3015 14.0286L12.3015 14.0286C12.71 14.0612 12.9731 13.9476 13.1512 13.7877C13.336 13.6218 13.4495 13.3874 13.5173 13.1501C13.5409 13.0678 13.6106 13.0069 13.6954 12.9948C14.135 12.932 14.5521 12.6511 14.7824 12.0919C14.7927 12.0669 14.8076 12.044 14.8263 12.0245C15.0152 11.8269 15.1056 11.6702 15.1438 11.5473C15.1805 11.4294 15.1733 11.3302 15.1419 11.2346C15.1085 11.1326 15.0469 11.0319 14.966 10.9153C14.9502 10.8926 14.9333 10.8687 14.9157 10.844C14.8499 10.7512 14.7752 10.6459 14.718 10.5397C14.717 10.5378 14.716 10.5359 14.715 10.5339C14.5694 10.2426 14.3668 9.87717 14.0051 9.61414C13.9389 9.56601 13.9054 9.48476 13.9184 9.40398C14.084 8.37757 13.4969 7.67469 12.8337 7.25587C12.7626 7.21093 12.7238 7.1289 12.7342 7.04538C12.8151 6.39831 12.493 5.63882 11.7402 5.0894Z" fill="#000201" stroke="#000201" stroke-width="0.2" stroke-linecap="round" stroke-linejoin="round"/>
            <path fill-rule="evenodd" clip-rule="evenodd" d="M11.4767 7.1731C11.5063 6.55132 10.8762 6.02477 10.1979 6.20976L10.1937 6.21089L10.1896 6.21185C9.42473 6.38836 9.19005 7.50879 9.92842 8.00104C10.0282 8.06755 10.0552 8.20235 9.98864 8.30212C9.92213 8.40189 9.78733 8.42885 9.68756 8.36233C8.6525 7.6723 8.9335 6.05982 10.0877 5.78972C11.0348 5.53428 11.9547 6.26403 11.9105 7.19375C11.9048 7.31352 11.803 7.40599 11.6833 7.40029C11.5635 7.39459 11.471 7.29287 11.4767 7.1731Z" fill="#000201" stroke="#000201" stroke-width="0.2" stroke-linecap="round"/>
            <path fill-rule="evenodd" clip-rule="evenodd" d="M10.5079 6.92309C10.6107 6.8614 10.7441 6.89474 10.8058 6.99756C10.9365 7.21535 11.0726 7.57511 10.9385 8.02202C10.904 8.13687 10.783 8.20204 10.6681 8.16759C10.5533 8.13313 10.4881 8.0121 10.5226 7.89725C10.6103 7.60471 10.5246 7.3729 10.4334 7.22097C10.3717 7.11815 10.4051 6.98478 10.5079 6.92309Z" fill="#000201" stroke="#000201" stroke-width="0.2" stroke-linecap="round"/>
            <path fill-rule="evenodd" clip-rule="evenodd" d="M14.8309 11.3701C14.9485 11.3466 15.0629 11.4229 15.0864 11.5404C15.0984 11.6003 15.114 11.6574 15.1313 11.7206C15.1382 11.7461 15.1454 11.7725 15.1528 11.8004C15.176 11.8885 15.2016 11.9959 15.2016 12.1006C15.2016 12.2206 15.1044 12.3178 14.9844 12.3178C14.8645 12.3178 14.7673 12.2206 14.7673 12.1006C14.7673 12.0575 14.7559 11.9985 14.7329 11.911C14.7278 11.8916 14.722 11.8706 14.7159 11.8483C14.6974 11.7806 14.6758 11.7015 14.6606 11.6256C14.6371 11.508 14.7134 11.3936 14.8309 11.3701Z" fill="#000201" stroke="#000201" stroke-width="0.2" stroke-linecap="round"/>
            <path fill-rule="evenodd" clip-rule="evenodd" d="M13.075 12.3718C13.15 12.2782 13.2866 12.263 13.3802 12.3379C13.4914 12.4269 13.6149 12.5622 13.7148 12.6971C13.8095 12.825 13.9095 12.9874 13.9381 13.1304C13.9616 13.2479 13.8854 13.3623 13.7678 13.3858C13.6502 13.4094 13.5358 13.3331 13.5123 13.2155C13.504 13.1736 13.4561 13.0773 13.3659 12.9556C13.281 12.8409 13.1826 12.7359 13.109 12.677C13.0153 12.6021 13.0001 12.4654 13.075 12.3718Z" fill="#000201" stroke="#000201" stroke-width="0.2" stroke-linecap="round" stroke-linejoin="round"/>
            <path fill-rule="evenodd" clip-rule="evenodd" d="M11.1617 11.8896C11.2784 11.8621 11.3953 11.9345 11.4228 12.0512C11.5803 12.7209 11.501 13.4206 11.4638 13.7177C11.449 13.8367 11.3404 13.921 11.2215 13.9062C11.1025 13.8913 11.0181 13.7828 11.033 13.6638C11.0698 13.3693 11.1383 12.738 11.0001 12.1506C10.9726 12.0339 11.045 11.917 11.1617 11.8896Z" fill="#000201" stroke="#000201" stroke-width="0.2" stroke-linecap="round" stroke-linejoin="round"/>
            <path fill-rule="evenodd" clip-rule="evenodd" d="M12.6813 9.34129C12.7349 9.23404 12.8653 9.19057 12.9726 9.24419C13.0549 9.28533 13.0933 9.29342 13.1677 9.30907C13.2013 9.31614 13.2422 9.32476 13.2979 9.33867C13.4142 9.36775 13.4849 9.48563 13.4558 9.60196C13.4268 9.71828 13.3089 9.78901 13.1926 9.75993C13.1654 9.75314 13.138 9.74738 13.1098 9.74146C13.0164 9.72184 12.9138 9.70027 12.7784 9.63257C12.6711 9.57895 12.6277 9.44853 12.6813 9.34129Z" fill="#000201" stroke="#000201" stroke-width="0.2" stroke-linecap="round" stroke-linejoin="round"/>
            <path fill-rule="evenodd" clip-rule="evenodd" d="M9.41441 7.33374C9.49462 7.42287 9.4874 7.56015 9.39827 7.64036C9.26636 7.75908 9.14734 8.01002 9.15123 8.29403C9.15495 8.56503 9.27076 8.85614 9.59412 9.07223C10.2587 9.5026 10.729 10.0531 11.0778 10.8283C11.127 10.9377 11.0783 11.0662 10.9689 11.1154C10.8596 11.1646 10.731 11.1159 10.6818 11.0065C10.3654 10.3033 9.94869 9.81886 9.35692 9.43595L9.35442 9.43433L9.35443 9.43431C8.90227 9.13287 8.72258 8.70339 8.71705 8.29998C8.7117 7.90924 8.86997 7.53164 9.10779 7.31761C9.19692 7.23739 9.33419 7.24462 9.41441 7.33374Z" fill="#000201" stroke="#000201" stroke-width="0.2" stroke-linecap="round" stroke-linejoin="round"/>
            <path fill-rule="evenodd" clip-rule="evenodd" d="M6.64146 7.68951C7.0677 6.54618 8.29325 5.67133 9.77651 5.97199C9.89403 5.99581 9.96999 6.11039 9.94617 6.22791C9.92234 6.34542 9.80777 6.42138 9.69025 6.39756C8.43753 6.14363 7.40775 6.87709 7.04833 7.8412C6.86936 8.32125 6.85943 8.85264 7.06839 9.34418C7.27674 9.83432 7.71117 10.3043 8.45593 10.646L8.46153 10.6486L8.46698 10.6514C9.43679 11.1649 10.0608 11.7441 10.4687 12.4125C10.8748 13.078 11.0559 13.8146 11.1685 14.6215C11.1851 14.7403 11.1022 14.85 10.9835 14.8665C10.8647 14.8831 10.755 14.8003 10.7385 14.6815C10.6292 13.8986 10.459 13.2302 10.098 12.6387C9.73945 12.0511 9.18177 11.5221 8.26915 11.038C7.44588 10.6589 6.92544 10.1179 6.66877 9.51406C6.41211 8.91029 6.42759 8.26318 6.64146 7.68951Z" fill="#000201" stroke="#000201" stroke-width="0.2" stroke-linecap="round"/>
        </g>
    </g>
    <defs>
        <linearGradient id="paint0_linear" x1="10.4689" y1="20.3711" x2="10.4689" y2="-0.878907" gradientUnits="userSpaceOnUse">
            <stop stop-color="#1B967F"/>
            <stop offset="0.665454" stop-color="#46D8BD"/>
            <stop offset="1" stop-color="#8FF5E3"/>
        </linearGradient>
        <linearGradient id="paint1_linear" x1="27.7759" y1="36.3683" x2="27.7759" y2="17.9285" gradientUnits="userSpaceOnUse">
            <stop stop-color="#1B967F"/>
            <stop offset="0.665454" stop-color="#46D8BD"/>
            <stop offset="1" stop-color="#8FF5E3"/>
        </linearGradient>
    </defs>
</svg>
