<svg width="418" height="474" viewBox="0 0 418 474" fill="none" xmlns="http://www.w3.org/2000/svg"><circle cx="61.5" cy="162.498" r="23" fill="#2851FC"/><circle cx="61.5" cy="162.498" r="23" fill="#67C2AD"/><circle cx="144" cy="204.998" r="51.5" fill="#3DC5AC"/><g opacity=".5"><mask id="a" maskUnits="userSpaceOnUse" x="12" y="0" width="370" height="474"><path d="M34.569 46.336L20.864 34.63 12.3 30.92l1.713-5.995h12.476l1.285-9.507 9.85-3.426L47.9 17.986l2.57-5.995 20.983 5.139 11.563-8.993 7.708 2.997 8.137-8.565L107.426 0l4.711 3.854 14.56 2.998 12.419 10.706 2.57 9.421 20.127 2.998v7.28l3.426 5.995 4.282-5.995 5.139 5.139 8.565-1.713 3.255 3.14 1.027 2.513-5.139 12.761 7.28 1.713 4.711-10.278 3.854 2.998v10.706l22.697-6.424 18.414 9.422 5.567 13.275 5.996 6.852h4.71l16.274-4.282 8.564 13.675 6.852 1.713v5.567l-9.421 8.565 6.852 4.282-1.285 7.28-8.993 5.139.856 16.273-1.284 12.847 4.71 8.965h6.852l12.847 12.019 5.139 10.278 9.422-5.996 8.993 8.137-4.711 7.28.428 13.275-5.995 5.139 3.854 8.137 6.424-2.998 4.282 7.28-3.854 9.108 3.854 11.02 14.132 5.138 3.854 3.855 16.701 2.141 3.855 16.701v22.697l-5.567 7.28 15.844 13.704 6.424 10.706-15.417 3.426-14.988 4.282-5.567-3.426.428-5.567-5.139-4.711-10.278 1.285.857 9.421-7.708-.428-6.424-10.278-1.713-11.134-10.278 5.995 2.141 5.996-5.995 1.713-6.852-7.28-4.282 6.852-.857 8.564-6.851-1.713 2.569-14.132-6.424-10.706-20.555 11.563-5.995 8.136 3.425 13.704-2.141 10.706 9.85 9.85-2.141 10.277-6.852 8.137 2.141 7.708-2.57 7.28-22.268 5.568 1.713 13.275v8.137l-17.13 11.562-7.28 7.28-2.569 14.56 2.998 7.28-5.568 8.137h-19.699l-16.273-2.141-5.995-12.419 5.567-4.283.428-27.407-3.854-18.843-.856-18.842 2.141-26.123-2.998-5.995 4.283-5.996 4.71-3.854 6.852-17.986-1.713-25.266-6.424-34.259-8.564-18.414-.429-6.424-2.997-6.309-5.996-6.11-10.706-5.567-1.713-7.708-4.282-5.568-6.852-9.421-14.988-17.558-5.567-3.426-3.854-12.847 2.569-8.565-10.278-2.569-2.57-5.567-1.712-5.996-3.854-3.425-11.991-10.706-1.713-10.278.856-9.85-6.423-6.852 2.57-4.71-7.28-10.278-3.427-11.106-1.284-4.71-10.278-7.28 1.285-9.85-4.711-5.567-11.191-7.194z" fill="#000201"/></mask><g opacity=".5" stroke="#000201" stroke-miterlimit="10" stroke-linecap="round" stroke-dasharray="2 2.5" mask="url(#a)"><path d="M18.217 39.238S30.471 20.366 54.9 15.455c24.428-4.911 24.375-31.978 30.809-36.435 6.434-4.458 28.273-13.133 35.961-15.215 7.716-2.082 42.396 7.127 42.396 7.127"/><path d="M19.765 44.15s6.408-9.957 18.902-17.217c5.02-2.91 10.92-5.606 17.861-7.127a47.5 47.5 0 003.738-1.014c9.13-2.99 14.39-9.556 17.914-16.176 4.458-8.355 6.22-17.003 9.718-19.379 1.762-1.174 4.565-2.67 7.849-4.244 9.157-4.351 22.533-9.663 28.326-11.345 2.643-.774 8.25-.293 14.55.748 12.628 2.002 28.113 5.952 28.22 5.926"/><path d="M21.314 49.061s6.541-10.277 19.009-17.457c5.046-2.91 10.92-5.792 17.834-7.42a47.367 47.367 0 003.738-1.068c9.13-3.017 14.496-9.716 18.127-16.363 4.512-8.301 6.434-16.923 10.065-19.325 1.816-1.201 4.672-2.67 7.956-4.271 9.077-4.351 22.533-9.85 28.46-11.718 2.696-.854 8.356-.427 14.657.56 12.681 1.976 28.272 5.766 28.513 5.713"/><path d="M22.89 53.972s6.674-10.596 19.142-17.723c5.072-2.883 10.892-5.953 17.78-7.715 1.308-.32 2.563-.72 3.738-1.12 9.157-3.044 14.603-9.877 18.314-16.55C86.456 2.616 88.512-5.98 92.25-8.382c1.895-1.2 4.779-2.696 8.036-4.297 9.023-4.351 22.559-10.036 28.593-12.092 2.776-.934 8.436-.587 14.737.374 12.761 1.895 28.433 5.552 28.78 5.445"/><path d="M24.438 58.91s6.808-10.917 19.249-17.963c5.099-2.883 10.892-6.14 17.754-8.008 1.308-.347 2.563-.774 3.764-1.175 9.157-3.07 14.71-10.036 18.501-16.736C88.352 6.833 90.594-1.735 94.44-4.164c1.949-1.228 4.885-2.723 8.143-4.298 8.97-4.377 22.559-10.25 28.726-12.438 2.83-1.015 8.543-.721 14.844.186 12.815 1.842 28.62 5.312 29.074 5.205"/><path d="M25.986 63.822s6.942-11.21 19.383-18.204c5.126-2.883 10.865-6.327 17.727-8.302 1.308-.373 2.563-.8 3.764-1.228 9.157-3.096 14.817-10.196 18.689-16.923C90.273 10.997 92.65 2.482 96.627.053c2.029-1.228 4.992-2.749 8.223-4.324 8.917-4.377 22.559-10.437 28.86-12.812 2.883-1.095 8.623-.881 14.924 0 12.895 1.761 28.78 5.098 29.341 4.964"/><path d="M27.561 68.734s7.075-11.532 19.49-18.472c5.152-2.883 10.865-6.486 17.7-8.568 1.308-.4 2.563-.854 3.791-1.281 9.184-3.123 14.924-10.357 18.875-17.084 4.78-8.114 7.342-16.602 11.4-19.032 2.083-1.254 5.099-2.749 8.303-4.35 8.837-4.405 22.56-10.624 28.994-13.16 2.963-1.174 8.73-1.014 15.03-.187 12.949 1.709 28.941 4.885 29.635 4.698"/><path d="M29.11 73.645s7.208-11.825 19.622-18.712c5.18-2.882 10.866-6.673 17.647-8.862 1.309-.427 2.563-.907 3.791-1.334 9.184-3.15 15.004-10.517 19.09-17.27 4.858-8.061 7.555-16.523 11.746-18.979 2.163-1.254 5.206-2.776 8.41-4.377 8.783-4.405 22.559-10.838 29.127-13.534 3.017-1.254 8.81-1.174 15.138-.373 13.028 1.628 29.127 4.671 29.928 4.457"/><path d="M30.685 78.556s7.342-12.145 19.73-18.978c5.205-2.883 10.839-6.86 17.62-9.156 1.308-.453 2.563-.96 3.818-1.388 9.184-3.176 15.11-10.703 19.275-17.457 4.913-8.007 7.77-16.442 12.094-18.898 2.216-1.255 5.286-2.803 8.49-4.404 8.73-4.405 22.586-11.024 29.234-13.907 3.097-1.335 8.917-1.335 15.218-.56 13.108 1.574 29.287 4.457 30.195 4.217"/><path d="M32.233 83.495s7.502-12.44 19.863-19.22c5.233-2.882 10.84-7.02 17.594-9.448 1.308-.48 2.563-.988 3.818-1.442 9.21-3.203 15.218-10.864 19.463-17.644 4.965-7.98 8.009-16.362 12.414-18.845 2.296-1.28 5.393-2.802 8.597-4.43 8.676-4.405 22.586-11.238 29.367-14.254 3.15-1.415 8.997-1.469 15.324-.748 13.162 1.495 29.448 4.244 30.489 3.977"/><path d="M33.782 88.406s7.635-12.76 19.97-19.486c5.286-2.856 10.812-7.207 17.567-9.742 1.308-.508 2.563-1.041 3.844-1.469 9.21-3.23 15.325-11.024 19.65-17.83 5.046-7.928 8.222-16.283 12.761-18.765 2.349-1.281 5.5-2.83 8.677-4.458 8.596-4.43 22.559-11.451 29.501-14.654 3.203-1.495 9.104-1.628 15.404-.934 13.242 1.414 29.608 4.004 30.756 3.71"/><path d="M35.357 93.317s7.769-13.079 20.103-19.725c5.313-2.857 10.813-7.394 17.514-10.037 1.308-.507 2.59-1.094 3.844-1.521 9.211-3.257 15.432-11.185 19.837-18.018 5.099-7.874 8.463-16.202 13.082-18.711 2.429-1.308 5.606-2.857 8.756-4.485 8.544-4.404 22.587-11.611 29.635-14.974 3.283-1.575 9.184-1.762 15.511-1.121 13.295 1.36 29.795 3.79 31.049 3.47"/><path d="M36.906 98.229s7.902-13.373 20.21-19.966c5.34-2.856 10.786-7.58 17.487-10.33 1.308-.534 2.59-1.121 3.844-1.575 9.237-3.283 15.511-11.345 20.05-18.205 5.153-7.82 8.677-16.122 13.429-18.631 2.483-1.308 5.713-2.883 8.864-4.511 8.489-4.404 22.612-11.825 29.767-15.348 3.338-1.655 9.291-1.922 15.619-1.308 13.375 1.281 29.954 3.577 31.343 3.23"/><path d="M38.48 103.14s8.037-13.693 20.318-20.233c5.366-2.856 10.785-7.74 17.46-10.623 1.308-.56 2.59-1.175 3.871-1.629 1.655-.587 1.869-2.402 3.337-3.283 1.389-.827 4.032-.667 5.286-1.681 3.177-2.563 5.9-5.633 8.25-8.729 1.201-1.575 2.323-1.842 3.337-3.363.668-1.014 1.308-3.363 1.949-4.351 4.245-6.807 7.582-13.346 11.827-15.535 2.563-1.335 5.82-2.883 8.944-4.538 8.436-4.43 22.613-12.012 29.901-15.695 3.417-1.735 9.371-2.082 15.698-1.495 13.429 1.201 30.115 3.363 31.61 2.963"/><path d="M40.03 108.078s8.169-13.987 20.45-20.473c3.79-2.002 7.582-5.125 11.827-7.82.88-.561 1.602-2.883 3.577-3.898 1.976-.987 5.26-.64 5.9-.88 3.818-1.389 7.182-3.604 10.145-6.247 1.896-1.708 1.362-3.683 2.937-5.605 1.896-2.296 5.847-4.511 7.342-6.727 5.259-7.74 9.131-15.962 14.096-18.498 2.617-1.334 5.927-2.91 9.051-4.564 8.356-4.431 22.613-12.199 30.035-16.07 3.47-1.814 9.477-2.215 15.805-1.68 13.509 1.147 30.302 3.149 31.903 2.722"/><path d="M41.578 112.99s8.302-14.307 20.557-20.74c3.924-2.056 7.795-3.977 12.174-6.834 1.655-1.094 3.39-3.523 5.233-4.377 1.334-.614 2.59-1.255 3.897-1.735 3.338-1.201 5.02-4.591 7.716-6.834 2.162-1.815 5.473-2.348 7.262-4.457 2.109-2.483 3.978-5.072 5.66-7.474 5.339-7.688 9.344-15.882 14.443-18.418 2.697-1.335 6.034-2.936 9.131-4.591 8.303-4.431 22.613-12.412 30.168-16.416 3.524-1.895 9.558-2.376 15.885-1.869 13.589 1.068 30.462 2.937 32.171 2.483"/><path d="M43.153 117.901s8.436-14.601 20.69-20.98c5.447-2.856 10.76-8.302 17.354-11.505 1.335-.64 1.175-1.788 2.483-2.242 1.121-.4 5.072.56 6.114 0 1.601-.854 1.681-2.803 3.123-3.924 1.335-1.04 1.816-3.47 3.017-4.644 3.604-3.55 7.422-6.3 9.985-9.903 5.393-7.66 9.584-15.802 14.79-18.365 2.75-1.36 6.141-2.936 9.211-4.617 8.25-4.431 22.613-12.6 30.302-16.79 3.604-1.975 9.664-2.536 15.992-2.056 13.642.988 30.622 2.697 32.464 2.243"/><path d="M44.701 122.813s8.597-14.921 20.798-21.248c5.473-2.829 10.732-8.488 17.326-11.798 1.335-.667 2.59-1.361 3.925-1.841 3.017-1.122 7.742-2.483 10.252-4.485 1.735-1.388 1.415-3.23 2.91-4.858a69.633 69.633 0 003.497-4.03c1.575-1.95 4.539-2.456 5.874-4.298 5.446-7.607 8.276-17.217 13.589-19.78 1.308-.64 4.832-.747 6.3-1.467 1.709-.828 1.362-2.27 3.017-3.15.988-.534 2.056-1.121 3.204-1.762 8.356-4.644 20.37-11.584 27.232-15.401 3.657-2.056 9.771-2.67 16.098-2.243 13.723.935 30.809 2.483 32.758 1.976"/><path d="M46.25 127.724s8.73-15.215 20.93-21.487c5.527-2.83 10.733-8.675 17.274-12.065 1.335-.694 2.59-1.388 3.925-1.896 9.29-3.416 16.098-12.332 21.198-19.325 2.029-2.803 5.739-5.178 7.608-7.821 1.282-1.815.748-4.004 2.029-5.499 1.869-2.188 5.901-3.95 7.93-4.911 2.883-1.388 4.218-2.963 7.288-4.645 8.143-4.43 22.64-12.999 30.542-17.51 3.738-2.135 9.851-2.83 16.179-2.43 13.802.855 30.969 2.27 33.025 1.736"/><path d="M47.825 132.662s8.864-15.508 21.038-21.727c5.553-2.83 9.184-6.487 15.698-10.01 1.335-.721 4.138-3.817 5.473-4.298 4.966-1.841 7.502-5.285 11.213-9.155.641-.667 5.419-2.002 6.007-2.696 1.735-1.975.908-3.31 2.376-5.259.614-.827 2.643-2.856 3.204-3.63 5.553-7.527 8.837-14.334 14.363-16.923 2.937-1.388 6.434-2.99 9.504-4.671 8.063-4.431 22.64-13.213 30.676-17.884 3.791-2.216 9.958-2.99 16.285-2.616 13.856.774 31.13 2.055 33.319 1.495"/><path d="M49.373 137.574s8.997-15.829 21.172-21.995c5.58-2.829 7.528-7.394 14.042-10.997 1.335-.748 3.978-.908 5.34-1.415 1.041-.4 3.844-3.07 4.832-3.577 2.27-1.2 2.403-2.963 4.379-4.671 1.068-.907 4.058-.587 5.045-1.575 1.522-1.548 2.964-4.244 4.299-5.872a183.576 183.576 0 004.832-6.22c2.536-3.39 4.539-4.537 6.941-7.58 1.229-1.575 4.432-4.325 5.687-5.58 1.655-1.68 1.762-4.11 3.524-4.91 1.495-.695 4.913-.641 6.568-1.415 1.628-.801 1.522-2.43 3.017-3.283 8.009-4.458 22.639-13.4 30.809-18.232 3.844-2.295 10.038-3.123 16.365-2.802 13.936.694 31.317 1.842 33.586 1.228"/><path d="M50.949 142.485s9.13-16.122 21.278-22.235c5.606-2.829 10.705-9.235 17.193-12.946 1.335-.774 2.616-1.521 3.951-2.028 9.318-3.497 16.392-12.813 21.759-19.86 3.47-4.537 8.036-8.114 11.346-11.718 2.109-2.295 2.884-5.285 5.099-6.3 3.071-1.414 6.648-3.042 9.665-4.724 7.956-4.457 22.64-13.586 30.942-18.605 3.925-2.375 10.146-3.283 16.473-2.99 14.016.642 31.476 1.63 33.879.989"/><path d="M52.497 147.397s9.29-16.443 21.411-22.502c5.634-2.83 10.68-9.423 17.14-13.24 1.335-.8 2.617-1.575 3.978-2.082 3.017-1.148 6.568-1.761 9.158-3.87 1.281-1.041 1.735-3.283 2.91-4.458a70.99 70.99 0 003.604-3.897c1.174-1.361 3.284-1.521 4.351-2.856 1.042-1.308 1.015-3.764 1.949-4.992 2.296-2.963 4.512-4.11 6.728-6.886 1.335-1.655 4.112-4.111 5.447-5.499 1.975-2.029 2.536-4.644 4.618-5.579 3.151-1.415 6.755-3.07 9.772-4.751 1.788-1.014 3.897-3.684 6.247-5.072 7.982-4.804 18.314-9.876 24.829-13.88 3.977-2.456 10.225-3.443 16.552-3.176 14.07.56 31.637 1.388 34.173.747"/><path d="M54.045 152.308s9.425-16.736 21.519-22.742c5.66-2.803 10.679-9.609 17.113-13.533 1.335-.828 2.616-1.628 3.978-2.135 3.924-1.495 9.771-3.604 13.001-6.594 2.457-2.268 2.403-5.258 4.459-7.74 1.682-2.03 3.257-4.058 4.699-5.9 2.403-3.043 5.846-4.804 8.196-7.634 3.284-3.977 5.446-8.701 8.944-10.25 3.203-1.414 6.861-3.07 9.851-4.778 1.548-.88 4.725-.694 6.701-1.895 1.629-.987 1.976-3.31 3.791-4.404 7.155-4.431 15.245-9.61 20.718-13.026 4.058-2.536 10.332-3.603 16.659-3.363 14.15.48 31.823 1.174 34.44.507"/><path d="M55.62 157.246s9.559-17.056 21.652-23.009c5.687-2.802 10.653-9.796 17.087-13.827 1.335-.827 2.616-1.654 4.005-2.188 1.628-.614 4.325-3.017 5.846-3.978 2.136-1.361 3.044-1.414 4.966-3.203 4.459-4.164 8.276-9.155 11.534-13.266 5.82-7.314 11.399-15.161 17.486-17.804 3.284-1.441 6.969-3.096 9.959-4.805 7.769-4.457 22.666-14.2 31.343-19.672 4.111-2.616 10.412-3.737 16.766-3.55 14.23.4 31.984.96 34.733.24"/><path d="M57.17 162.158s9.69-17.35 21.758-23.249c5.74-2.803 10.652-9.984 17.06-14.121 1.334-.854 2.616-1.708 4.004-2.242 2.563-.988 4.085-3.657 6.354-5.392 1.682-1.281 4.192-1.521 5.713-3.043 1.816-1.815 1.362-3.363 2.964-5.258 1.922-2.269 5.847-4.885 7.502-6.914 5.847-7.26 11.613-15.054 17.807-17.75 3.337-1.442 7.075-3.123 10.039-4.832 7.715-4.457 22.666-14.387 31.476-20.046 4.165-2.696 10.519-3.897 16.846-3.737 14.283.32 32.144.748 35.001 0"/><path d="M58.717 167.069s9.825-17.644 21.892-23.516c5.767-2.803 10.626-10.17 17.007-14.414 1.335-.881 2.616-1.762 4.031-2.296 3.07-1.174 6.381-5.712 9.051-7.954 2.669-2.242 4.698-2.135 6.994-4.751 2.43-2.776 4.673-5.606 6.702-8.088 1.468-1.789 5.179-2.99 6.647-4.751 1.469-1.789.721-4.138 2.216-5.713 3.017-3.203 6.114-5.845 9.264-7.207 3.418-1.468 7.182-3.123 10.119-4.858 7.662-4.457 22.666-14.6 31.583-20.42 4.245-2.776 10.626-3.763 16.953-3.923 14.363-.374 32.331.533 35.294-.24"/><path d="M60.293 171.981s9.985-17.964 21.998-23.757c5.794-2.803 10.626-10.357 16.98-14.707 1.335-.908 2.643-1.789 4.031-2.349 6.595-2.536 10.573-8.328 15.432-14.041 1.254-1.468 5.126-1.788 6.274-3.176.747-.908.16-4.298.881-5.125 1.335-1.602 2.99-1.869 4.351-3.47 2.029-2.402 5.126-3.791 7.209-5.82 2.723-2.668 4.432-5.765 7.261-6.966 3.471-1.468 7.289-3.15 10.226-4.885 7.608-4.457 22.666-14.787 31.716-20.767 4.299-2.856 10.706-3.923 17.034-4.11 14.416-.454 32.491.32 35.587-.507"/><path d="M61.841 176.892s10.119-18.258 22.132-23.997c5.82-2.776 10.626-10.543 16.953-15.001 1.335-.934 2.643-1.842 4.058-2.402 5.18-2.002 8.704-7.821 12.842-12.252 1.895-2.002 4.779-2.322 6.461-4.351 1.335-1.602 4.752-2.563 5.953-3.977 1.122-1.335.107-3.283 1.255-4.618 4.966-5.819 10.119-11.291 15.405-13.507 3.55-1.468 7.368-3.176 10.305-4.911 7.529-4.458 22.693-14.975 31.85-21.14 4.379-2.937 10.813-4.058 17.14-4.298 14.497-.56 32.651.08 35.855-.748"/><path d="M63.416 181.83s10.252-18.551 22.24-24.263c5.846-2.776 10.598-10.731 16.899-15.295 1.335-.961 2.643-1.895 4.058-2.456 4.645-1.815 8.917-5.312 12.761-9.236 1.015-1.014 2.029-4.057 2.964-5.125 1.842-2.055 3.551-2.162 5.179-4.164.828-.987 1.602-1.922 2.376-2.829a557.52 557.52 0 013.818-4.431c1.842-2.082 4.886-2.482 6.754-4.324 3.204-3.123 5.26-7.341 8.57-8.702 3.605-1.495 7.476-3.176 10.412-4.938 7.476-4.458 22.693-15.188 31.984-21.488 4.432-3.016 10.893-4.217 17.247-4.51 14.55-.641 32.811-.134 36.148-.988"/><path d="M64.965 186.742S75.35 167.87 87.31 162.238c5.873-2.776 10.598-10.917 16.872-15.589 1.335-.987 2.643-1.921 4.058-2.509 2.937-1.148 5.714-5.178 8.33-7.367 2.643-2.189 5.153-2.562 7.475-5.178 2.777-3.097 5.34-6.273 7.689-8.996 2.19-2.535 4.432-5.125 6.755-7.554 2.056-2.162 4.805-2.589 6.915-4.297 2.135-1.709 3.657-4.698 5.82-5.579 3.684-1.495 7.582-3.203 10.492-4.965 7.422-4.457 22.693-15.375 32.117-21.861 4.485-3.096 10.999-4.378 17.327-4.698 14.63-.747 32.998-.347 36.415-1.228"/><path d="M66.513 191.653s10.546-19.165 22.48-24.771c5.926-2.776 10.572-11.13 16.846-15.855 1.335-1.014 2.643-1.975 4.085-2.536 8.062-3.203 13.402-11.958 19.222-18.872.961-1.147 3.551-1.815 4.458-2.856 1.656-1.868 3.151-5.018 4.886-6.886 1.762-1.896 3.764-2.509 5.606-4.164 3.071-2.75 6.194-5.019 9.345-6.3 3.737-1.521 7.689-3.23 10.572-4.965 7.368-4.457 22.693-15.588 32.251-22.208 4.565-3.176 11.106-4.511 17.433-4.885 14.684-.827 33.159-.56 36.709-1.495"/><path d="M68.088 196.565s10.68-19.459 22.587-25.011c5.953-2.776 10.572-11.318 16.819-16.149 1.335-1.041 2.643-2.029 4.085-2.59 5.179-2.055 11.56-6.192 15.031-10.303 2.829-3.363 2.883-6.566 5.793-9.823.427-.48 6.087-2.562 6.514-3.043 1.415-1.575.694-3.31 2.163-4.858 1.415-1.468 2.883-4.111 4.351-5.445 3.338-3.017 6.782-4.324 10.199-5.686 3.818-1.521 7.796-3.23 10.679-4.991 7.315-4.485 22.693-15.776 32.384-22.582 4.619-3.257 11.186-4.672 17.514-5.072 14.764-.907 33.318-.774 37.003-1.735"/><path d="M69.637 201.476s10.812-19.779 22.72-25.278c5.98-2.749 10.545-11.504 16.765-16.443 1.335-1.067 4.432-3.977 5.901-4.537 4.058-1.602 6.06-2.67 9.584-6.086 1.175-1.148 3.551-1.709 4.672-2.936 1.068-1.175.908-2.963 1.922-4.138 2.163-2.482 4.192-4.911 6.087-7.02 1.763-1.975 3.044-5.365 4.94-7.287 1.441-1.468 3.524-1.522 5.019-2.856 3.47-3.097 7.021-5.659 10.572-7.047 1.682-.667 4.565.053 6.194-.667 2.136-.961 2.963-3.337 4.592-4.351a122.643 122.643 0 004.725-3.097c1.842-1.254 3.524-4.35 5.66-5.872 7.209-5.098 15.965-9.583 22.132-13.987 4.673-3.337 11.294-4.805 17.621-5.258 14.817-1.015 33.505-.988 37.27-1.976"/><path d="M71.212 206.414s10.946-20.073 22.826-25.518c6.007-2.749 10.546-11.691 16.74-16.736 1.361-1.095 2.643-2.109 4.111-2.696 9.424-3.791 17.594-14.948 24.268-22.289 6.301-6.913 13.643-14.334 20.851-17.136 3.951-1.548 8.009-3.283 10.866-5.045 3.124-1.949 9.798-5.232 14.897-8.916 1.709-1.227.641-3.843 2.403-5.125 2.35-1.708 5.5-2.108 7.769-3.763 2.697-1.975 5.286-3.844 7.556-5.499 4.752-3.416 11.4-4.965 17.727-5.445 14.897-1.095 33.666-1.228 37.563-2.216"/><path d="M72.76 211.326s11.107-20.367 22.96-25.759c6.034-2.749 10.519-11.878 16.713-17.03 1.362-1.121 2.67-2.162 4.138-2.749 9.451-3.817 17.674-15.108 24.455-22.475 6.328-6.86 13.883-14.254 21.171-17.057 4.005-1.548 8.116-3.283 10.946-5.071 2.617-1.655 4.993-4.378 9.238-7.448 1.655-1.201 6.194-1.788 7.929-3.069 3.204-2.349 5.073-5.392 8.196-7.714 1.308-.961 1.388-3.817 2.617-4.698 1.254-.935 3.657.106 4.805-.721 4.806-3.497 11.48-5.445 17.807-5.632 15.004-.427 33.826-1.442 37.831-2.483"/><path d="M74.309 216.237s11.24-20.687 23.067-26.025c6.087-2.75 10.518-12.065 16.686-17.324 1.361-1.148 2.669-2.215 4.138-2.802 9.451-3.818 17.754-15.295 24.642-22.636 6.38-6.833 14.096-14.174 21.518-17.003 4.085-1.548 8.223-3.31 11.053-5.098 2.162-1.362 5.446-3.043 9.104-5.099 1.708-.961 2.803-4.484 4.618-5.605 2.083-1.281 4.886-.16 6.888-1.655 2.617-1.975.935-4.378 3.071-6.647 1.788-1.895 7.395-3.683 9.21-5.018 4.886-3.577 11.56-5.579 17.914-5.819 15.084-.507 34.013-1.655 38.125-2.722"/><path d="M75.884 221.149s11.373-20.981 23.2-26.266c6.114-2.723 10.492-12.279 16.633-17.617 1.361-1.175 2.669-2.242 4.164-2.856 2.19-.881 6.114-.854 8.197-2.429 1.468-1.121 1.094-3.711 2.483-5.019 5.179-4.911 9.931-10.917 14.149-15.375 6.434-6.779 14.337-14.067 21.866-16.923 4.138-1.575 8.329-3.336 11.133-5.125 3.764-2.402 7.982-6.913 14.229-10.997 1.789-1.174 4.913-.614 6.782-2.029.667-.507 2.536-4.244 3.203-4.724 1.816-1.362 2.243-4.164 3.951-5.419 1.229-.934 3.738-.347 4.859-1.201 4.94-3.657 11.667-5.739 17.995-6.006 15.137-.587 34.173-1.868 38.418-2.963"/><path d="M77.433 226.06s11.533-21.274 23.307-26.532c6.14-2.723 10.465-12.466 16.605-17.911 1.362-1.201 2.67-2.296 4.165-2.91 4.432-1.815 8.624-5.338 12.575-9.315.908-.908 1.789-3.764 2.67-4.725 1.174-1.255 2.296-.614 3.417-1.895 2.242-2.536 4.378-4.992 6.381-7.101 6.46-6.753 14.55-13.986 22.185-16.869 4.219-1.575 8.41-3.337 11.213-5.152 3.658-2.349 9.745-6.94 16.233-11.851 1.548-1.175 2.536-3.497 4.084-4.698 1.842-1.388 4.218-1.655 5.98-3.017 1.042-.8 1.389-3.016 2.377-3.763 1.334-1.015 3.283-.534 4.485-1.415 1.975-1.468 4.245-2.723 6.647-3.684.641-.267 2.136-2.108 2.777-2.322 3.097-1.041 5.5-.027 8.65-.16 15.218-.667 34.333-2.082 38.685-3.23"/><path d="M78.981 230.998s11.667-21.568 23.441-26.773c6.167-2.722 10.465-12.652 16.579-18.204 1.361-1.228 2.67-2.349 4.165-2.963 4.618-1.895 8.997-5.659 13.108-9.903.801-.827 4.032-1.201 4.806-2.028 1.094-1.175-.267-2.857.774-4.058 2.296-2.589 4.458-5.071 6.541-7.207 1.148-1.174.16-3.203 1.388-4.377 1.415-1.362 5.046-1.842 6.541-3.123 4.699-4.004 9.745-7.501 14.604-9.289 4.271-1.602 8.516-3.364 11.319-5.179 3.311-2.135 8.651-6.193 14.497-10.677.908-.694 2.083-3.683 2.99-4.404 2.11-1.628 4.005-.988 6.114-2.616 1.175-.908 3.07-.134 4.192-1.014.614-.454.507-2.616 1.094-3.07 1.522-1.175 3.017-2.296 4.379-3.337 2.029-1.521 5.66-1.414 8.089-2.402 3.658-1.495 6.274-3.79 10.092-3.977 15.298-.748 34.52-2.296 38.978-3.47"/><path d="M80.556 235.91s11.8-21.888 23.547-27.04c6.194-2.723 10.439-12.839 16.553-18.498 1.361-1.255 2.67-2.376 4.191-3.016 4.512-1.869 8.811-5.552 12.895-9.716 1.255-1.282 5.046-1.762 6.248-3.097 1.521-1.681.427-4.217 1.868-5.819.881-.987 3.071-.854 3.925-1.788.614-.641-.134-2.376.454-2.963 6.567-6.673 15.004-13.827 22.853-16.736 4.352-1.602 8.623-3.39 11.4-5.205 3.604-2.349 8.89-7.421 15.751-12.039 1.762-1.174 5.153-.961 6.835-2.295 1.602-1.255 1.922-4.271 3.471-5.472a480.767 480.767 0 017.342-5.659c2.723-2.082 6.247-2.483 9.611-3.604 1.201-.4 2.136-1.948 3.39-2.215 1.789-.374 3.551-.641 5.313-.721 15.351-.827 34.68-2.536 39.246-3.71"/><path d="M82.105 240.821s11.934-22.182 23.681-27.28c6.22-2.722 10.438-13.026 16.499-18.791 1.361-1.282 2.669-2.43 4.191-3.043 9.505-3.924 19.57-15.963 26.965-23.41 1.975-1.975 1.602-5.258 3.871-7.207 1.815-1.548 4.832-1.948 6.754-3.337 3.711-2.695 7.529-4.938 11.24-6.272 4.405-1.602 8.73-3.39 11.507-5.232 6.781-4.484 22.746-17.564 33.559-25.839 2.296-1.761 5.046-4.804 7.795-5.899 2.376-.961 4.726-.053 7.209-.453a29.795 29.795 0 013.39-.374c15.432-.908 34.841-2.749 39.54-3.951"/><path d="M83.68 245.732s12.094-22.475 23.788-27.52c6.273-2.696 10.412-13.239 16.472-19.085 1.362-1.308 2.67-2.482 4.218-3.096 9.505-3.951 18.288-16.309 25.79-23.757 1.762-1.761 5.366-3.55 7.395-5.312 1.709-1.468.454-3.496 2.27-4.804 4.111-3.016 9.771-4.992 13.882-6.46 4.486-1.628 8.837-3.416 11.587-5.258 3.551-2.376 9.745-7.234 16.392-12.519 1.576-1.255 3.525-5.979 5.126-7.234 1.576-1.254 4.859-.507 6.381-1.735 1.308-1.041.561-.64 1.816-1.628 1.361-1.068 4.138-5.018 5.392-6.006 2.617-2.029 6.702-1.815 9.505-2.242 2.803-.427 4.352-1.548 7.529-1.735 15.511-.988 35.027-2.963 39.832-4.218"/><path d="M85.228 250.671s12.228-22.769 23.921-27.787c6.301-2.696 10.413-13.427 16.446-19.379 1.362-1.335 2.697-2.509 4.218-3.15 9.531-3.977 18.368-16.469 26.004-23.943 2.189-2.162 3.204-5.072 5.793-7.181 1.148-.934 3.738-1.121 4.913-1.975 2.162-1.575 5.553-2.135 7.769-3.39 2.216-1.254 3.23-3.203 5.393-3.977 4.538-1.628 8.943-3.443 11.666-5.285 3.685-2.483 10.279-7.741 17.301-13.373 1.521-1.201 3.497-5.472 5.019-6.7 1.949-1.548 3.417-.08 5.286-1.575 2.189-1.735 4.271-3.39 6.22-4.911 2.884-2.243 6.942-2.803 9.718-5.232 3.337-2.936 5.954-1.682 8.864-1.869 1.922-.133 3.898-.293 5.927-.453 1.842-.161 4.138.747 5.553-.481 2.509-2.135 6.194-.56 9.13-.881 8.971-.934 16.66-1.948 19.49-2.669"/><path d="M86.777 255.582s12.36-23.089 24.027-28.027c6.328-2.696 10.386-13.614 16.393-19.646 1.361-1.361 2.696-2.563 4.245-3.203 3.684-1.548 7.288-4.378 10.732-7.714 1.095-1.041 1.629-3.978 2.697-5.099 1.281-1.361 3.097-.907 4.351-2.295.614-.668 2.109-5.339 2.724-6.006 2.269-2.536 3.577-.988 5.686-3.016 2.51-2.456 6.674-4.138 8.757-6.513 1.628-1.869 1.121-4.485 3.604-5.979 2.83-1.709 9.077-2.963 11.854-3.951 4.619-1.628 9.05-3.443 11.773-5.312 6.595-4.484 22.747-18.177 33.933-26.906 5.393-4.217 12.548-7.954 18.662-7.314 2.883.321 5.927-.454 8.997-.747 2.563-.24 6.861-3.15 8.543-2.536 8.09 2.99 19.543-.587 22.853-1.441"/><path d="M88.352 260.493s12.521-23.382 24.135-28.294c6.354-2.696 10.358-13.8 16.365-19.939 1.362-1.388 2.697-2.616 4.245-3.257 3.524-1.494 6.034-5.658 9.371-8.835.694-.667 3.684-1.788 4.405-2.456 2.403-2.215 2.697-6.886 5.073-9.022 2.723-2.429 5.232-1.815 7.528-4.03 6.782-6.487 16.152-13.427 24.562-16.39 4.672-1.655 9.157-3.47 11.854-5.311 6.541-4.485 22.773-18.365 34.066-27.28 5.446-4.298 12.414-8.008 18.769-7.501 3.444.294 3.23 5.365 12.227-1.094 1.415-1.015 3.471-.347 5.179-.534 1.495-.16 1.469-2.483 2.91-2.643 2.136-.24 5.74 1.628 7.689 1.388 5.874-.747 10.546-1.495 12.682-2.055"/><path d="M89.9 265.405s12.655-23.676 24.268-28.534c6.408-2.67 10.359-14.014 16.339-20.234 1.362-1.414 2.697-2.642 4.272-3.309 2.67-1.121 8.73-4.271 11.186-6.914 2.456-2.642 1.362-4.751 3.818-7.42 3.871-4.164 8.063-6.86 11.56-10.17 6.808-6.46 16.366-13.32 24.882-16.309 4.752-1.655 9.264-3.497 11.961-5.339 4.191-2.909 9.023-9.823 17.433-16.79 4.592-3.817 12.735-7.634 16.766-10.837 5.5-4.377 12.522-7.153 18.876-7.687 15.805-1.335 35.694-3.844 40.954-5.205"/><path d="M91.449 270.316s12.788-23.97 24.375-28.801c6.434-2.669 10.332-14.2 16.312-20.527 1.362-1.441 2.696-2.696 4.272-3.363 5.206-2.215 10.492-5.765 15.004-11.237 1.201-1.469 1.441-4.832 2.696-6.22.935-1.041 3.444-4.858 4.352-5.846 1.709-1.841 3.097.134 4.725-1.361 6.862-6.433 16.606-13.239 25.23-16.256 4.805-1.681 9.37-3.496 12.04-5.365 5.393-3.764 14.684-15.161 25.363-23.943 2.056-1.709 7.102-2.563 8.97-4.058 5.58-4.457 12.628-7.313 18.956-7.874 15.858-1.415 35.855-4.057 41.248-5.445"/><path d="M93.024 275.255s12.948-24.264 24.508-29.042c6.461-2.669 10.306-14.387 16.259-20.82 1.362-1.468 2.697-2.75 4.299-3.417 9.584-4.084 18.795-17.324 26.938-24.878 6.888-6.379 16.819-13.159 25.549-16.175 4.886-1.682 9.478-3.524 12.121-5.392 4.111-2.883 10.225-11.104 18.742-18.285 2.189-1.841 4.538.267 6.674-1.521 1.041-.881 4.111-4.511 5.126-5.339a268.466 268.466 0 013.951-3.203c5.633-4.538 12.708-7.447 19.062-8.061 15.939-1.495 36.015-4.271 41.515-5.686"/><path d="M94.572 280.166s13.082-24.584 24.616-29.282c6.487-2.642 10.305-14.601 16.232-21.114 1.361-1.495 2.696-2.776 4.298-3.47 9.584-4.11 18.875-17.483 27.152-25.064 6.941-6.353 17.059-13.08 25.896-16.096 4.939-1.681 9.558-3.55 12.228-5.418 1.228-.881 3.39-3.737 5.286-5.286 2.723-2.188 5.927-4.778 9.344-7.5 1.281-1.015 2.59-3.657 3.925-4.725 1.495-1.201 3.043-.801 4.565-2.028 3.924-3.124 7.876-6.273 11.453-9.183 5.713-4.618 12.815-7.607 19.142-8.248 16.019-1.575 36.202-4.484 41.809-5.952"/><path d="M96.147 285.077s13.216-24.877 24.749-29.548c6.514-2.643 10.279-14.788 16.205-21.408 1.362-1.521 2.724-2.829 4.299-3.523 9.584-4.138 18.421-15.002 26.804-22.582.988-.881 2.563-4.458 3.684-5.365a93.476 93.476 0 015.874-4.378c2.67-1.842 5.5-.881 8.33-2.402.934-.508 1.868-3.631 2.803-4.084 2.056-.988 4.111-2.91 6.114-3.577 3.203-1.095 6.247-1.175 8.73-2.349 1.415-.667 3.15-.027 4.111-.694 1.388-.988 2.723-3.817 4.966-5.659 1.335-1.094 2.803-3.123 4.352-4.458 1.468-1.228 3.016-1.761 4.592-3.123 2.429-2.082 4.965-4.244 7.502-6.433 2.002-1.708 1.148-3.416 3.097-5.071 2.376-2.002 7.528-3.924 9.691-5.686 5.767-4.698 12.895-7.767 19.249-8.435 16.072-1.655 36.362-4.698 42.075-6.192"/><path d="M97.696 289.989s13.376-25.171 24.856-29.789c6.567-2.643 10.278-14.975 16.178-21.701 1.362-1.548 2.723-2.883 4.325-3.577 9.611-4.137 19.062-17.831 27.526-25.411 7.021-6.273 17.486-12.92 26.564-15.963 5.072-1.708 9.771-3.577 12.414-5.472 3.097-2.242 8.757-7.1 15.138-12.625 1.308-1.121 4.084-4.858 5.446-6.006 5.339-4.618 9.424-6.833 14.256-10.811 5.821-4.778 13.002-7.927 19.356-8.621 16.152-1.735 36.523-4.912 42.369-6.433"/><path d="M99.245 294.9s13.509-25.464 24.988-30.056c6.595-2.642 10.252-15.161 16.126-21.994 1.361-1.575 2.723-2.91 4.325-3.604 9.611-4.164 19.142-18.017 27.712-25.598 1.682-1.495 3.577-2.99 5.58-4.484 2.696-1.976 5.66-2.082 8.677-3.818 4.218-2.402 8.569-6.246 12.627-7.607 5.153-1.708 9.879-3.603 12.495-5.499 2.616-1.921 7.182-5.819 12.468-10.436 2.91-2.536 2.67-3.791 5.847-6.54 4.565-3.977 12.547-9.449 16.659-12.839 5.9-4.858 13.082-8.088 19.436-8.809 16.232-1.815 36.709-5.152 42.663-6.7"/><path d="M100.82 299.838s13.642-25.758 25.095-30.296c6.621-2.616 10.226-15.375 16.099-22.288 1.362-1.602 2.723-2.963 4.352-3.657 5.82-2.536 10.866-11.398 16.445-17.51 1.362-1.495 3.444-.214 4.779-1.629 2.27-2.455 4.512-4.751 6.675-6.646 7.101-6.219 17.941-12.759 27.258-15.829 5.206-1.735 9.985-3.603 12.575-5.525 2.83-2.082 5.793-6.326 11.693-11.531 1.068-.935 4.325-2.109 5.42-3.07 2.429-2.135 3.978-6.673 6.461-8.835 2.082-1.815 5.152-1.308 7.155-3.043a359.325 359.325 0 014.378-3.684c5.954-4.938 13.189-8.248 19.543-8.995 16.285-1.895 36.869-5.366 42.929-6.94"/><path d="M102.368 304.75s13.803-26.052 25.229-30.563c6.648-2.616 10.225-15.562 16.072-22.582 1.362-1.628 2.723-3.016 4.352-3.71 4.912-2.136 10.332-4.431 15.138-9.556 1.228-1.308 1.922-5.045 3.123-6.353 3.364-3.684 6.648-7.287 9.852-10.037 7.128-6.192 18.181-12.679 27.578-15.775 5.286-1.735 10.092-3.63 12.682-5.552 2.082-1.548 5.419-4.404 9.424-7.928 2.776-2.456 3.31-5.659 6.514-8.515 5.607-4.965 14.123-9.769 19.302-14.094 6.007-5.018 13.269-8.408 19.623-9.182 16.366-2.002 37.03-5.579 43.224-7.18"/><path d="M103.943 309.661s13.937-26.345 25.336-30.803c6.675-2.616 10.199-15.749 16.046-22.876 1.361-1.655 2.723-3.043 4.378-3.763 5.526-2.429 12.067-5.526 17.487-11.398 1.335-1.441 1.629-5.499 2.937-6.913 2.67-2.91 2.963-5.633 5.526-7.821 7.182-6.14 20.744-12.599 30.249-15.722 5.339-1.735 10.198-3.631 12.761-5.579 2.536-1.895 6.995-5.819 12.254-10.544 1.469-1.308 1.202-2.802 2.777-4.19 1.255-1.122 4.325-2.163 5.606-3.31 4.993-4.458 10.145-8.996 14.711-12.839 6.087-5.099 13.375-8.569 19.729-9.37 16.446-2.082 37.217-5.792 43.491-7.42"/><path d="M105.491 314.573s14.07-26.666 25.47-31.044c6.728-2.589 10.172-15.962 15.992-23.169 1.361-1.682 2.723-3.096 4.378-3.817 9.665-4.244 19.463-18.712 28.487-26.346 1.041-.881 1.335-3.23 2.536-4.11 1.602-1.202 4.191-.908 6.034-2.056 6.193-3.897 13.322-7.367 19.702-9.449 5.42-1.762 10.306-3.657 12.869-5.605 3.577-2.696 11.159-9.663 19.409-17.11 1.415-1.282 1.388-3.844 2.83-5.125.988-.881 3.47-.508 4.458-1.388a517.861 517.861 0 018.811-7.634c6.14-5.179 13.482-8.702 19.836-9.556 16.499-2.163 37.377-6.006 43.784-7.688"/><path d="M107.04 319.484s14.23-26.959 25.577-31.31c6.754-2.589 10.145-16.149 15.965-23.436 1.361-1.709 2.723-3.15 4.405-3.871 9.664-4.271 19.543-18.872 28.673-26.532 3.417-2.856 7.796-5.793 12.521-8.409 1.122-.613 2.243-3.923 3.391-4.511 4.245-2.162 8.623-1.334 12.681-2.642 5.473-1.762 10.412-3.684 12.949-5.632 5.846-4.458 22.826-20.74 35.641-31.604 6.22-5.259 13.562-8.862 19.916-9.743 16.58-2.242 37.537-6.22 44.078-7.928"/><path d="M108.615 324.422s14.364-27.253 25.71-31.55c6.781-2.59 10.145-16.336 15.939-23.73 1.361-1.735 2.749-3.177 4.405-3.924 6.727-2.989 13.562-10.997 20.21-18.178 1.308-1.414 1.014-4.03 2.322-5.338 1.602-1.628 4.779-1.922 6.354-3.203 2.804-2.323 3.765-4.698 7.529-6.914 1.121-.667 4.806-1.308 5.98-1.922 5.1-2.722 10.493-5.071 15.432-6.673 5.553-1.788 10.519-3.683 13.028-5.632 5.793-4.484 22.827-20.954 35.775-31.978 6.274-5.338 13.669-9.022 20.023-9.929 16.659-2.349 37.724-6.46 44.345-8.168"/><path d="M110.164 329.334s14.523-27.547 25.816-31.818c6.808-2.562 10.119-16.523 15.885-24.023 1.362-1.762 2.75-3.23 4.405-3.977 9.692-4.325 19.703-19.219 29.074-26.907 7.342-6.032 19.302-12.252 29.261-15.428 5.606-1.788 10.625-3.71 13.135-5.659 5.74-4.484 22.826-21.167 35.908-32.351 6.328-5.419 13.749-9.183 20.104-10.117 16.712-2.429 37.883-6.673 44.638-8.435"/><path d="M111.712 334.245s14.657-27.84 25.95-32.058c6.862-2.562 10.092-16.736 15.859-24.317 1.361-1.788 2.75-3.283 4.432-4.03 9.691-4.324 19.782-19.406 29.26-27.093 7.369-5.979 19.543-12.172 29.608-15.349 5.686-1.788 10.732-3.736 13.215-5.685 5.687-4.458 22.827-21.354 36.042-32.699 6.407-5.498 13.856-9.342 20.21-10.303 16.793-2.509 38.044-6.887 44.905-8.675"/><path d="M113.287 339.157s14.791-28.134 26.057-32.325c6.888-2.563 10.092-16.923 15.832-24.611 1.362-1.815 2.75-3.31 4.432-4.084 9.718-4.351 19.863-19.592 29.447-27.28 4.646-3.737 11.187-5.899 17.941-9.769 4.058-2.322 8.17-6.994 11.987-8.195 5.74-1.815 10.813-1.067 13.322-3.043 1.549-1.228 3.978-3.416 6.969-6.192 1.094-1.015 4.912-2.082 6.14-3.23 4.218-3.951 5.393-9.129 10.332-13.694 1.175-1.094 3.417-1.628 4.592-2.695a417.538 417.538 0 018.143-7.261c.854-.721 1.708-2.242 2.589-2.909a39.18 39.18 0 0117.728-7.581c16.873-2.589 38.231-7.1 45.199-8.915"/><path d="M114.836 344.068s14.95-28.428 26.163-32.565c6.915-2.536 10.065-17.11 15.805-24.904 1.362-1.842 2.75-3.363 4.459-4.137 6.194-2.777 12.601-10.037 18.929-16.924 2.349-2.562 4.698-2.402 6.994-4.591 1.255-1.174 2.483-4.965 3.711-5.926a44.309 44.309 0 012.323-1.735c2.189-1.548 4.672-2.001 7.315-3.47 6.514-3.63 14.043-7.927 20.664-10.009 5.82-1.815 10.919-3.764 13.402-5.739 2.003-1.602 4.726-5.419 9.051-9.503 7.662-7.234 18.608-16.469 27.231-23.916 6.515-5.686 14.043-9.663 20.397-10.677 16.927-2.696 38.392-7.314 45.493-9.156"/><path d="M116.411 349.006s15.084-28.721 26.297-32.805c6.942-2.536 10.038-17.324 15.752-25.198 1.361-1.868 2.75-3.417 4.458-4.164 9.745-4.404 20.023-19.939 29.821-27.654 7.503-5.899 20.211-11.931 30.623-15.161 5.873-1.815 11.026-3.764 13.482-5.766 1.175-.934 2.857-2.482 4.939-4.404 1.442-1.361 2.296-3.977 4.058-5.659 1.629-1.548 4.165-2.162 6.007-3.897 1.068-1.014 1.095-2.856 2.189-3.897 1.148-1.094 3.364-1.388 4.539-2.509 4.912-4.645 10.011-9.369 14.684-13.4 6.567-5.765 14.149-9.823 20.503-10.864 17.007-2.776 38.552-7.527 45.76-9.422"/><path d="M117.959 353.918s15.218-29.015 26.404-33.072c6.995-2.536 10.012-17.511 15.725-25.492 1.362-1.895 2.75-3.443 4.486-4.217 9.744-4.405 20.103-20.127 30.034-27.841 7.529-5.872 20.451-11.825 30.943-15.081 5.953-1.842 11.133-3.79 13.589-5.792 2.456-2.002 6.221-7.207 12.067-12.84.801-.774 2.697-1.014 3.524-1.815 3.071-2.936 5.794-6.619 9.078-9.689 1.868-1.735 4.271-2.936 6.113-4.645 1.976-1.788 3.898-3.55 5.794-5.178 6.647-5.846 14.23-9.983 20.584-11.051 17.059-2.856 38.711-7.767 46.053-9.663"/><path d="M119.508 358.829s15.378-29.308 26.537-33.312c7.022-2.509 10.012-17.697 15.698-25.785 1.362-1.922 2.75-3.497 4.486-4.271 9.744-4.431 20.183-20.287 30.221-28.027 3.337-2.563 7.743-5.152 12.548-7.528 3.337-1.655 5.793-4.244 9.264-5.605 1.442-.561 3.951-.027 5.366-.534 1.389-.481 2.777-.934 4.112-1.361 2.99-.908 5.793-.801 8.143-1.762 2.376-.988 4.298-3.043 5.526-4.057 2.323-1.922 6.915-6.38 12.495-11.772 1.628-1.601 2.563-4.324 4.351-6.059 1.228-1.201 3.311-1.335 4.592-2.563 5.073-4.858 10.386-9.849 15.271-14.093 6.701-5.926 14.337-10.143 20.691-11.238 17.14-2.936 38.898-7.981 46.32-9.903"/><path d="M121.083 363.741s15.511-29.602 26.644-33.58c7.048-2.509 9.985-17.884 15.672-26.078 1.361-1.949 2.776-3.551 4.512-4.325 9.771-4.457 20.263-20.473 30.408-28.187 7.609-5.819 20.904-11.665 31.637-14.948 6.06-1.842 11.346-3.817 13.776-5.846 3.097-2.589 10.332-9.823 18.608-17.83 1.255-1.228 1.468-3.524 2.777-4.778 1.548-1.468 4.164-1.895 5.713-3.364 3.284-3.096 6.594-6.139 9.718-8.888 6.754-6.006 14.416-10.304 20.77-11.425 17.22-3.043 39.059-8.194 46.615-10.17"/><path d="M122.631 368.652s15.672-29.896 26.778-33.82c7.075-2.509 9.958-18.097 15.618-26.372 1.362-1.975 2.777-3.577 4.512-4.377 5.98-2.75 12.281-9.877 18.608-16.763 1.576-1.709 2.056-4.725 3.631-6.353 2.43-2.509 5.954-3.47 8.357-5.285 2.082-1.575 4.592-3.15 7.395-4.672 1.388-.747 1.762-2.562 3.257-3.31 1.709-.827 4.539-.587 6.327-1.361 5.019-2.189 10.252-4.111 15.004-5.525 6.141-1.869 11.454-3.844 13.856-5.873 1.976-1.681 5.714-5.311 10.332-9.849 1.656-1.628 2.35-4.431 4.192-6.246 1.335-1.308 3.791-1.602 5.179-2.963 2.617-2.563 4.539-5.712 7.235-8.275 3.124-2.963 7.049-5.312 10.012-7.928 6.835-6.086 14.523-10.463 20.877-11.611 17.274-3.123 39.219-8.408 46.908-10.41"/><path d="M124.207 373.59s15.805-30.189 26.884-34.086c7.102-2.483 9.932-18.285 15.591-26.666 1.362-2.002 2.777-3.63 4.512-4.431 9.798-4.485 20.424-20.821 30.783-28.561 7.689-5.739 21.358-11.505 32.304-14.815 6.194-1.868 11.56-3.87 13.963-5.899 5.232-4.458 22.826-22.982 37.083-35.608 6.888-6.166 14.603-10.624 20.984-11.798 17.353-3.203 39.406-8.622 47.175-10.65"/><path d="M125.755 378.502s15.939-30.483 27.018-34.327c7.155-2.482 9.932-18.471 15.565-26.96 1.361-2.028 2.776-3.657 4.538-4.484 9.798-4.511 20.504-21.007 30.996-28.748 7.743-5.712 21.572-11.424 32.652-14.734 6.273-1.896 11.666-3.871 14.042-5.926 5.18-4.458 22.854-23.169 37.217-35.955 6.968-6.246 14.71-10.784 21.064-11.985 17.434-3.31 39.566-8.835 47.469-10.891"/><path d="M127.304 383.413s16.098-30.777 27.125-34.567c7.181-2.456 9.904-18.685 15.538-27.226 1.361-2.056 2.776-3.711 4.538-4.538 9.798-4.538 20.584-21.194 31.183-28.935 7.769-5.686 21.812-11.344 32.972-14.681 6.327-1.895 11.773-3.897 14.123-5.952 5.126-4.458 22.853-23.383 37.323-36.329 7.021-6.326 14.79-10.917 21.171-12.172 17.487-3.39 39.726-9.075 47.735-11.157"/><path d="M128.879 388.325s16.232-31.071 27.258-34.834c7.208-2.456 9.878-18.872 15.485-27.52 1.361-2.082 2.776-3.764 4.565-4.592 9.825-4.564 20.664-21.38 31.37-29.121 7.822-5.659 22.025-11.265 33.318-14.601 6.408-1.895 11.881-3.897 14.23-5.979 5.073-4.431 22.853-23.57 37.457-36.676 7.075-6.406 14.897-11.077 21.251-12.359 17.567-3.496 39.913-9.289 48.029-11.397"/><path d="M130.427 393.236s16.366-31.364 27.365-35.074c7.235-2.456 9.852-19.059 15.458-27.814 1.362-2.109 2.777-3.79 4.566-4.644 9.824-4.565 20.744-21.541 31.556-29.309 7.849-5.632 22.239-11.157 33.639-14.547 6.461-1.922 11.987-3.924 14.31-5.98 4.993-4.431 22.853-23.756 37.59-37.049 7.155-6.486 14.978-11.238 21.358-12.545 17.621-3.577 40.074-9.503 48.323-11.638"/><path d="M131.976 398.174s16.526-31.657 27.499-35.341c7.288-2.429 9.824-19.245 15.431-28.107 1.335-2.136 2.803-3.844 4.592-4.672 9.851-4.591 20.824-21.727 31.743-29.495 7.876-5.605 22.48-11.077 33.986-14.467 6.541-1.922 12.094-3.951 14.417-6.006 4.939-4.431 22.853-23.97 37.724-37.423 7.208-6.567 15.084-11.398 21.465-12.733 17.7-3.657 40.233-9.716 48.589-11.878"/><path d="M133.551 403.086s16.659-31.951 27.605-35.582c7.316-2.429 9.825-19.459 15.378-28.401 1.335-2.162 2.803-3.897 4.592-4.724 3.578-1.682 7.182-7.421 11.026-11.371 2.723-2.803 5.634-3.55 8.437-6.593 4.111-4.458 7.982-7.421 12.174-10.357 2.162-1.522 7.876-3.871 10.866-5.339 4.138-2.028 6.087-4.457 10.866-6.192 4.405-1.602 9.824-1.815 13.882-3.017 2.377-.694 3.658-2.616 5.687-3.336 3.578-1.281 8.33-2.936 9.798-4.271 1.549-1.388 2.43-3.951 6.06-7.714 2.964-3.07 4.272-6.353 8.01-10.17 1.655-1.682 5.526-3.764 7.261-5.499 1.629-1.628 3.284-3.283 4.94-4.911a324.794 324.794 0 019.611-9.102c7.288-6.647 15.191-11.558 21.545-12.92 17.78-3.763 40.42-9.929 48.883-12.145"/><path d="M135.099 407.997s16.82-32.245 27.739-35.848c7.342-2.402 9.798-19.646 15.351-28.695 1.335-2.189 2.803-3.924 4.619-4.778 9.851-4.644 20.984-22.101 32.144-29.869 7.956-5.552 22.933-10.89 34.653-14.334 6.675-1.922 12.308-3.977 14.577-6.059 2.35-2.162 6.968-9.209 13.749-16.229 1.789-1.869 5.607-1.415 7.556-3.39.721-.721.4-2.669 1.121-3.417a424.586 424.586 0 014.886-4.884c1.682-1.655.988-3.631 2.67-5.232 1.895-1.842 6.167-3.283 8.009-4.965 7.342-6.727 15.271-11.718 21.652-13.106 17.834-3.844 40.58-10.143 49.15-12.386"/><path d="M136.675 412.908s16.953-32.538 27.845-36.088c7.369-2.402 9.772-19.833 15.325-28.988 1.335-2.216 2.803-3.977 4.619-4.832 9.878-4.644 21.064-22.288 32.33-30.056 8.01-5.525 23.174-10.81 35.001-14.253 6.754-1.949 12.414-3.978 14.684-6.086 4.778-4.431 22.879-24.558 38.124-38.491 7.395-6.807 15.378-11.878 21.732-13.293 17.914-3.951 40.74-10.383 49.444-12.626"/><path d="M138.223 417.82s17.086-32.832 27.979-36.329c7.422-2.375 9.745-20.046 15.298-29.282 1.335-2.242 2.803-4.03 4.619-4.884 9.878-4.672 21.144-22.476 32.517-30.243 8.036-5.499 23.387-10.731 35.348-14.201 6.808-1.948 12.521-4.003 14.764-6.112 4.725-4.431 22.88-24.771 38.257-38.865 7.476-6.886 15.458-12.038 21.839-13.479 17.968-4.031 40.927-10.597 49.738-12.893"/><path d="M139.771 422.758s17.247-33.125 28.086-36.596c7.449-2.375 9.718-20.233 15.245-29.575 1.335-2.269 2.803-4.057 4.645-4.938 9.905-4.698 21.225-22.635 32.705-30.43 1.869-1.254 4.111-2.509 6.647-3.71 1.415-.667 2.537.694 4.085.053 1.282-.533 2.964-3.123 4.325-3.657 6.755-2.615 14.203-4.964 20.637-6.806 6.888-1.949 12.628-4.004 14.871-6.139 4.672-4.431 22.88-24.958 38.364-39.212 7.529-6.967 15.565-12.198 21.946-13.667 18.047-4.137 41.088-10.81 50.005-13.132"/><path d="M141.346 427.67s17.381-33.42 28.193-36.836c7.475-2.376 9.718-20.42 15.218-29.869 1.335-2.296 2.803-4.111 4.645-4.992 9.905-4.724 21.305-22.822 32.892-30.616 2.963-1.976 6.994-2.59 11.453-4.431.854-.347 1.709-2.056 2.59-2.403.8-.32 1.628 1.282 2.456.961.988-.373 1.975-2.616 2.99-2.989 5.58-1.976 11.373-3.737 16.526-5.205 6.941-1.976 12.708-4.031 14.95-6.166 4.619-4.405 22.88-25.172 38.498-39.586 7.582-7.046 15.645-12.358 22.026-13.853 18.101-4.218 41.248-11.024 50.298-13.373"/><path d="M142.895 432.581s17.54-33.713 28.326-37.103c7.502-2.349 9.691-20.607 15.191-30.162 1.335-2.323 2.803-4.165 4.672-5.045 9.905-4.725 21.385-23.009 33.105-30.804 1.228-.827 5.286-.373 6.835-1.174 1.548-.801.614-2.856 2.429-3.63 2.323-.988 5.019-1.041 7.582-1.976 1.816-.667 3.444-2.242 5.313-2.856 1.122-.373 2.884.534 4.005.187 1.468-.454 2.296-2.189 3.711-2.643a397.841 397.841 0 016.487-1.895c6.995-1.975 12.815-4.057 15.031-6.192 4.565-4.405 22.88-25.358 38.632-39.933 7.662-7.126 15.751-12.518 22.132-14.04 18.181-4.324 41.408-11.238 50.565-13.613"/><path d="M144.444 437.492s17.673-34.006 28.433-37.343c7.555-2.349 9.664-20.82 15.164-30.456 1.335-2.349 2.83-4.191 4.672-5.098 9.931-4.752 21.465-23.196 33.292-30.964 3.657-2.402 8.543-2.642 14.336-4.778 1.522-.56 3.418-3.229 4.993-3.763 5.847-2.002 11.96-3.817 17.353-5.366 7.075-2.001 12.922-4.057 15.138-6.219 2.616-2.562 10.866-9.743 19.649-19.085 1.015-1.095 1.122-3.203 2.163-4.324a635.778 635.778 0 014.218-4.405c.614-.614-.48-3.31.107-3.923 3.631-3.711 9.05-5.286 12.601-8.596 7.716-7.207 15.832-12.678 22.213-14.227 18.261-4.404 41.594-11.451 50.859-13.88"/><path d="M146.019 442.431s17.807-34.3 28.566-37.61c7.582-2.323 9.638-21.008 15.111-30.724 1.335-2.375 2.83-4.244 4.699-5.151 7.956-3.817 16.953-16.47 26.324-25.358 1.228-1.148 3.844-1.282 5.072-2.269 1.148-.934.908-2.776 2.056-3.524 2.056-1.334 3.738-1.601 6.621-2.856 1.415-.64 4.298-.827 5.873-1.414 1.095-.428 1.709-2.349 2.83-2.75 7.102-2.589 14.951-4.911 21.706-6.806 7.128-2.002 12.761-4.405 15.217-6.246 2.323-1.735 5.9-8.489 12.495-15.028.961-.961 4.165-4.004 5.179-5.019 7.182-7.34 14.897-12.358 21.251-20.606 6.488-8.462 15.939-12.84 22.32-14.414 18.314-4.485 41.755-11.692 51.152-14.121"/><path d="M147.567 447.342s17.968-34.594 28.674-37.85c4.111-1.255 6.594-7.341 8.863-14.227.32-.988-.08-3.15.24-4.164.294-.908 2.163-3.23 2.457-4.164 1.308-4.058 1.842-5.446 3.55-8.515 1.335-2.403 2.83-4.298 4.699-5.205 9.958-4.778 21.625-23.57 33.666-31.338 8.276-5.338 24.749-10.25 37.35-13.773 7.208-2.002 13.135-4.084 15.324-6.273 2.536-2.536 9.745-10.757 18.475-20.153.748-.801 1.682-3.176 2.483-4.004 1.255-1.334 2.082-1.414 3.631-2.455 7.662-5.179 11.239-10.09 14.47-14.414 6.407-8.649 16.018-13 22.399-14.601 18.395-4.591 41.915-11.905 51.42-14.361"/><path d="M149.142 452.253s18.101-34.887 28.807-38.117c4.218-1.254 6.034-9.662 8.303-16.789 1.869-5.819 4.272-10.09 6.728-14.548 1.335-2.429 2.83-4.324 4.725-5.232 9.959-4.804 21.679-23.756 33.853-31.524 8.303-5.311 24.962-10.143 37.697-13.72 7.262-2.028 13.242-4.11 15.405-6.299 4.351-4.404 22.906-26.159 39.165-41.4 7.902-7.448 16.125-13.16 22.506-14.788 18.448-4.698 42.102-12.119 51.713-14.628"/><path d="M150.691 457.165s18.261-35.181 28.913-38.357c4.138-1.228 4.752-5.739 6.995-12.733.534-1.655 2.883-4.991 3.391-6.673 1.388-4.458 2.803-8.862 4.618-12.225 1.335-2.456 2.83-4.378 4.726-5.285.827-.401 5.793-2.67 6.647-3.257 2.563-1.762 1.148-2.536 3.925-5.418 1.255-1.308 1.575-4.885 2.857-6.3 6.274-6.887 13.856-12.439 20.637-16.763 8.356-5.285 25.202-10.063 38.044-13.64 7.342-2.028 13.349-4.137 15.485-6.299 4.298-4.405 22.906-26.346 39.299-41.748 7.982-7.527 16.205-13.319 22.612-14.974 18.529-4.778 42.263-12.332 51.981-14.868"/><path d="M152.239 462.076s18.395-35.474 29.047-38.597c7.716-2.269 9.558-21.781 14.978-31.898 1.334-2.482 2.829-4.431 4.725-5.338 2.483-1.202 5.099-3.337 7.822-5.926 2.029-1.949 2.43-2.349 4.539-4.698 1.388-1.522 4.485-4.938 5.9-6.513 5.153-5.686 10.519-11.345 15.965-14.761 8.383-5.259 25.416-9.983 38.365-13.587 7.395-2.028 13.455-4.137 15.591-6.326 2.056-2.109 7.476-8.408 14.39-16.069 1.095-1.228 1.789-4.805 2.964-6.086.881-.961 2.242.374 3.15-.614a598.077 598.077 0 017.075-7.527c.828-.881 1.014-3.417 1.869-4.298.881-.907 2.429-.133 3.31-1.014 2.243-2.242 4.459-4.431 6.675-6.513 1.281-1.228 2.082-3.844 3.39-4.965 1.469-1.254 3.418-1.014 4.859-2.135 5.233-4.031 10.252-6.967 14.47-8.061 18.582-4.885 42.423-12.546 52.274-15.108"/><path d="M153.814 467.014s18.528-35.768 29.154-38.864c7.742-2.269 9.531-21.968 14.951-32.191 1.335-2.509 2.83-4.458 4.752-5.392 2.029-.988 8.97-4.004 11.16-6.006 3.283-2.963 1.895-5.392 5.446-9.342 5.686-6.327 11.693-12.946 17.834-16.737 8.436-5.232 25.656-9.903 38.711-13.506 7.476-2.056 13.563-4.164 15.672-6.353 3.497-3.657 16.686-21.514 30.836-35.955 1.655-1.682 3.817-1.788 5.473-3.39 1.094-1.068 2.189-2.109 3.257-3.15 8.089-7.687 16.392-13.64 22.8-15.348 18.661-4.965 42.609-12.759 52.567-15.348"/><path d="M155.363 471.926s18.688-36.035 29.287-39.105c7.796-2.242 7.769-21.034 13.162-31.337 1.335-2.536 4.592-5.659 6.514-6.593 3.498-1.708 8.089-3.737 12.014-7.928.828-.881.801-3.23 1.629-4.137 1.281-1.415 2.563-2.856 3.897-4.324.881-.988.881-3.924 1.789-4.912 4.646-5.045 10.386-7.954 15.325-10.971 8.463-5.205 25.87-9.822 39.032-13.453 7.528-2.055 13.669-4.164 15.778-6.379 3.097-3.283 11.747-19.913 26.911-29.976 1.549-1.014.614-2.536 1.442-3.39.827-.854 2.696-.934 3.524-1.788 2.616-2.67 5.553-4.965 7.796-7.688 6.941-8.435 16.499-13.8 22.879-15.535 18.715-5.072 42.77-12.999 52.835-15.615"/><path d="M156.938 476.837s18.822-36.328 29.394-39.371c7.822-2.242 9.478-22.369 14.871-32.779 1.334-2.562 2.856-4.564 4.778-5.499 10.012-4.911 22.079-24.69 34.814-32.458 8.517-5.178 26.11-9.743 39.379-13.373 7.609-2.082 13.776-4.191 15.858-6.406 4.085-4.378 22.934-27.146 39.807-43.189 8.222-7.847 16.579-13.96 22.986-15.722 18.795-5.151 42.93-13.213 53.128-15.855"/><path d="M158.486 481.749s18.982-36.622 29.528-39.612c7.849-2.216 9.451-22.555 14.844-33.072 1.335-2.589 2.857-4.591 4.779-5.552 10.038-4.938 22.159-24.878 35.027-32.645 8.543-5.152 26.324-9.663 39.726-13.32 7.662-2.082 13.883-4.191 15.939-6.433 2.482-2.696 9.37-12.145 18.635-22.902 1.415-1.628 3.577-.988 5.099-2.67 1.522-1.681 2.403-5.712 4.004-7.393 1.309-1.388 3.818-4.084 6.087-4.592 1.415-.293 2.03-2.028 3.017-3.016 1.042-1.014 2.056-2.028 3.097-2.989a125 125 0 017.129-6.327c1.468-1.201 2.029-2.989 4.298-3.336 5.179-.774 8.223-5.285 11.64-6.246 18.849-5.259 43.117-13.427 53.422-16.096"/><path d="M160.035 486.66s19.115-36.916 29.634-39.879c7.876-2.215 9.425-22.768 14.817-33.365 1.335-2.616 2.857-4.645 4.806-5.606 10.038-4.938 22.239-25.064 35.214-32.832 8.57-5.125 26.564-9.582 40.047-13.239 7.742-2.082 13.989-4.218 16.045-6.46 2.937-3.23 18.181-13.934 26.697-30.296 1.122-2.136 2.377-2.536 3.578-3.79 1.335-1.388 3.31-2.349 3.978-4.111.721-1.869 2.216-2.242 3.337-3.337.828-.8 1.495-1.815 2.456-2.402 9.238-5.365 16.766-14.281 23.174-16.096 18.928-5.338 43.277-13.64 53.689-16.362"/><path d="M161.61 491.598s19.249-37.209 29.768-40.119c7.929-2.188 9.424-22.955 14.79-33.659 1.335-2.643 2.857-4.671 4.806-5.659 10.065-4.938 22.319-25.251 35.401-33.019 8.623-5.098 26.778-9.502 40.393-13.159 7.796-2.109 14.097-4.244 16.126-6.486 3.924-4.351 22.96-27.734 40.206-44.284 8.41-8.087 16.873-14.44 23.281-16.282 18.982-5.445 43.437-13.854 53.982-16.603"/><path d="M163.159 496.51s19.409-37.503 29.874-40.359c7.956-2.189 9.398-23.143 14.737-33.953 1.335-2.67 2.857-4.725 4.833-5.713 10.065-4.965 22.372-25.438 35.588-33.205 8.65-5.072 27.018-9.423 40.74-13.106 7.876-2.109 14.203-4.245 16.232-6.513 3.871-4.351 22.96-27.948 40.34-44.657 8.49-8.168 16.953-14.601 23.361-16.47 19.062-5.552 43.624-14.067 54.249-16.843"/><path d="M164.707 501.421s19.542-37.796 30.008-40.626c7.983-2.162 9.371-23.329 14.71-34.247 1.335-2.696 2.857-4.778 4.833-5.738 10.091-4.992 22.452-25.625 35.774-33.393 8.704-5.072 27.232-9.316 41.061-13.026 7.93-2.109 14.31-4.271 16.313-6.54 3.817-4.351 22.959-28.134 40.473-45.003 8.543-8.249 17.06-14.761 23.467-16.657 19.116-5.632 43.784-14.307 54.544-17.083"/><path d="M166.282 506.333s19.703-38.091 30.115-40.867c8.036-2.162 9.344-23.543 14.684-34.513 1.334-2.723 2.883-4.805 4.832-5.793 10.092-5.018 22.533-25.811 35.988-33.579 8.73-5.045 27.472-9.236 41.408-12.973 8.009-2.135 14.417-4.27 16.393-6.566 3.764-4.351 22.959-28.348 40.607-45.377 8.596-8.329 17.14-14.922 23.574-16.843 19.195-5.739 43.944-14.521 54.837-17.351"/><path d="M167.831 511.244s19.836-38.357 30.221-41.133c8.063-2.136 9.318-23.73 14.657-34.807 1.308-2.75 2.884-4.858 4.859-5.846 10.092-5.018 22.613-26.025 36.175-33.74 8.784-5.018 27.686-9.155 41.729-12.892 8.063-2.136 14.523-4.298 16.499-6.593 3.711-4.351 22.96-28.535 40.714-45.725 8.677-8.408 17.247-15.081 23.654-17.03 19.249-5.819 44.131-14.734 55.104-17.59"/><path d="M169.406 516.182s19.97-38.651 30.355-41.373c8.089-2.109 9.291-23.917 14.604-35.101 1.308-2.776 2.883-4.912 4.859-5.899 10.118-5.045 22.693-26.212 36.362-33.926 8.81-4.992 27.899-9.076 42.075-12.84 8.143-2.162 14.63-4.297 16.579-6.619 3.658-4.325 22.96-28.748 40.848-46.099 8.73-8.488 17.326-15.241 23.761-17.216 19.329-5.926 44.291-14.948 55.397-17.831"/><path d="M170.954 521.094s20.13-38.945 30.462-41.641c8.116-2.109 9.264-24.13 14.577-35.394 1.308-2.803 2.883-4.938 4.886-5.953 10.118-5.071 22.773-26.399 36.549-34.113 8.863-4.965 28.139-8.995 42.422-12.759 8.196-2.162 14.737-4.324 16.686-6.646 3.604-4.325 22.987-28.935 40.981-46.446 8.81-8.568 17.434-15.401 23.841-17.403 19.383-6.033 44.452-15.162 55.665-18.098"/><path d="M172.503 526.005s20.263-39.211 30.595-41.881c8.17-2.082 9.238-24.317 14.551-35.688 1.308-2.829 2.883-4.991 4.885-6.005 10.145-5.099 22.853-26.586 36.736-34.3 8.891-4.939 28.353-8.916 42.743-12.706 8.276-2.162 14.871-4.324 16.766-6.647 3.551-4.324 22.987-29.121 41.115-46.819 8.863-8.648 17.513-15.588 23.947-17.59 19.436-6.139 44.612-15.375 55.959-18.338"/><path d="M174.078 530.917s20.424-39.505 30.702-42.121c8.196-2.056 9.211-24.504 14.497-35.982 1.308-2.856 2.883-5.045 4.912-6.059 10.145-5.125 22.907-26.8 36.95-34.487 8.917-4.938 28.593-8.835 43.09-12.626 8.329-2.189 14.977-4.351 16.846-6.673 3.497-4.324 22.987-29.335 41.248-47.166 8.917-8.728 17.62-15.722 24.028-17.777 19.516-6.246 44.798-15.615 56.252-18.578"/><path d="M175.626 535.828s20.558-39.825 30.836-42.388c10.279-2.562 9.238-37.236 19.383-42.388 10.145-5.125 22.986-26.959 37.136-34.673 14.123-7.715 55.237-12.84 60.363-19.273 5.126-6.432 45.947-59.177 65.516-65.503 19.57-6.326 44.959-15.829 56.519-18.819"/></g></g><circle cx="88" cy="58.998" r="10.5" fill="#F5F3F4" stroke="#3DC5AC" stroke-dasharray="5 3"/><circle cx="88" cy="58.998" r="7.5" fill="#3DC5AC"/><circle cx="145" cy="51.998" r="10.5" fill="#F5F3F4" stroke="#E37CB0" stroke-dasharray="5 3"/><circle cx="145" cy="51.998" r="7.5" fill="#E37CB0"/><circle cx="134" cy="95.998" r="10.5" fill="#F5F3F4" stroke="#E37CB0" stroke-dasharray="5 3"/><circle cx="134" cy="95.998" r="7.5" fill="#E37CB0"/><circle cx="211" cy="106.998" r="10.5" fill="#F5F3F4" stroke="#3DC5AC" stroke-dasharray="5 3"/><circle cx="211" cy="106.998" r="7.5" fill="#3DC5AC"/><circle cx="193" cy="153.998" r="10.5" fill="#F5F3F4" stroke="#E37CB0" stroke-dasharray="5 3"/><circle cx="193" cy="153.998" r="7.5" fill="#E37CB0"/><circle cx="204" cy="229.998" r="10.5" fill="#F5F3F4" stroke="#E37CB0" stroke-dasharray="5 3"/><circle cx="204" cy="229.998" r="7.5" fill="#E37CB0"/><circle cx="253" cy="247.998" r="10.5" fill="#F5F3F4" stroke="#E37CB0" stroke-dasharray="5 3"/><circle cx="253" cy="247.998" r="7.5" fill="#E37CB0"/><circle cx="246" cy="294.998" r="10.5" fill="#F5F3F4" stroke="#E37CB0" stroke-dasharray="5 3"/><circle cx="246" cy="294.998" r="7.5" fill="#E37CB0"/><circle cx="193" cy="324.998" r="10.5" fill="#F5F3F4" stroke="#E37CB0" stroke-dasharray="5 3"/><circle cx="193" cy="324.998" r="7.5" fill="#E37CB0"/><circle cx="193" cy="400.998" r="10.5" fill="#F5F3F4" stroke="#E37CB0" stroke-dasharray="5 3"/><circle cx="193" cy="400.998" r="7.5" fill="#E37CB0"/><circle cx="235" cy="356.998" r="10.5" fill="#F5F3F4" stroke="#3DC5AC" stroke-dasharray="5 3"/><circle cx="235" cy="356.998" r="7.5" fill="#3DC5AC"/><circle cx="309" cy="284.998" r="10.5" fill="#F5F3F4" stroke="#3DC5AC" stroke-dasharray="5 3"/><circle cx="309" cy="284.998" r="7.5" fill="#3DC5AC"/><circle cx="274" cy="196.998" r="10.5" fill="#F5F3F4" stroke="#3DC5AC" stroke-dasharray="5 3"/><circle cx="274" cy="196.998" r="7.5" fill="#3DC5AC"/><path fill-rule="evenodd" clip-rule="evenodd" d="M102.407 123.452c-17.36 1.432-18.522 2.593-19.953 19.953-1.432-17.36-2.593-18.521-19.954-19.953 17.36-1.432 18.522-2.593 19.954-19.954 1.431 17.361 2.593 18.522 19.953 19.954zM417.407 232.452c-17.361 1.432-18.521 2.593-19.953 19.953-1.432-17.36-2.593-18.521-19.954-19.953 17.361-1.432 18.522-2.593 19.954-19.954 1.432 17.361 2.592 18.522 19.953 19.954z" fill="#000201"/><rect x="73.5" y="143.498" width="102" height="102" rx="51" fill="#E37CB0"/><path fill-rule="evenodd" clip-rule="evenodd" d="M141.487 178.112c3.635 2.492 7.065 6.708 6.376 12.79 2.062 1.702 3.216 3.847 3.958 5.331.231.426.516.829.85 1.3.107.151.219.309.336.478.452.652.953 1.427 1.245 2.318.304.926.376 1.957.021 3.098-.332 1.066-1.015 2.16-2.097 3.323-1.441 3.334-3.994 5.294-6.844 5.932-.461 1.319-1.207 2.722-2.428 3.819-1.475 1.324-3.535 2.103-6.303 1.883-1.911-.138-3.504-.984-4.646-2.012-.429 1.712-.978 3.125-1.785 4.475-1.155 1.935-2.798 3.667-5.183 5.953a1.166 1.166 0 01-1.91-.464c-2.4-7.01-5.93-11.058-9.717-14.198-1.607-1.332-3.253-2.496-4.915-3.671l-.967-.685c-1.973-1.403-3.946-2.861-5.752-4.616l-.012-.011-.011-.012c-1.617-1.617-4.979-4.978-6.448-10.646l-.006-.025c-2.173-9.206.311-16.477 4.529-21.585 4.177-5.059 10.046-7.99 14.709-8.628 9.072-1.323 16.045.545 20.656 3.911 4.344 3.171 6.584 7.684 6.344 11.942zm-7.719-10.058c-4.024-2.938-10.353-4.742-18.949-3.486l-.011.001c-4.072.555-9.419 3.184-13.232 7.802-3.772 4.569-6.053 11.094-4.06 19.553 1.306 5.026 4.276 8.011 5.841 9.576 1.667 1.618 3.513 2.988 5.473 4.382l.944.668c1.662 1.175 3.392 2.398 5.074 3.793 3.736 3.097 7.269 7.067 9.807 13.524 1.638-1.634 2.724-2.894 3.513-4.215.963-1.613 1.527-3.391 2.011-6.203a1.166 1.166 0 012.221-.261c.445 1.039 2.08 2.707 4.372 2.871h.01c2.194.176 3.607-.435 4.564-1.293.992-.891 1.602-2.15 1.966-3.424.126-.442.501-.769.956-.834 2.361-.337 4.601-1.846 5.837-4.849a1.18 1.18 0 01.236-.362c1.015-1.061 1.5-1.902 1.705-2.563a2.625 2.625 0 00-.01-1.679c-.179-.548-.51-1.088-.945-1.715-.084-.122-.175-.25-.27-.383-.353-.498-.754-1.063-1.061-1.634a.301.301 0 01-.016-.031c-.782-1.564-1.871-3.527-3.813-4.939a1.167 1.167 0 01-.465-1.129c.889-5.512-2.264-9.287-5.825-11.536a1.165 1.165 0 01-.535-1.13c.435-3.475-1.295-7.554-5.338-10.504z" fill="#000201"/><path fill-rule="evenodd" clip-rule="evenodd" d="M132.347 179.243c.159-3.339-3.225-6.167-6.868-5.173l-.022.006-.022.005c-4.108.948-5.368 6.965-1.403 9.608a1.166 1.166 0 01-1.293 1.941c-5.559-3.706-4.05-12.365 2.149-13.816 5.086-1.372 10.026 2.547 9.788 7.54a1.165 1.165 0 11-2.329-.111z" fill="#000201"/><path fill-rule="evenodd" clip-rule="evenodd" d="M127.154 177.901a1.167 1.167 0 011.6.4c.701 1.17 1.432 3.102.712 5.502a1.166 1.166 0 01-2.233-.67c.471-1.571.011-2.816-.479-3.632a1.167 1.167 0 01.4-1.6zM150.36 201.783a1.166 1.166 0 011.372.915c.064.321.148.628.241.967.037.137.076.279.115.429.125.473.262 1.049.262 1.612a1.166 1.166 0 11-2.332 0c0-.231-.061-.548-.185-1.019a25.075 25.075 0 00-.091-.336c-.099-.364-.215-.788-.297-1.196a1.166 1.166 0 01.915-1.372zM140.939 207.162a1.165 1.165 0 011.638-.183c.598.478 1.261 1.205 1.797 1.929.509.687 1.046 1.559 1.2 2.327a1.166 1.166 0 01-2.287.458c-.045-.225-.302-.743-.786-1.397-.457-.615-.985-1.179-1.38-1.496a1.164 1.164 0 01-.182-1.638zM130.663 204.572a1.166 1.166 0 011.402.868c.846 3.596.42 7.354.22 8.949a1.167 1.167 0 01-2.314-.289c.198-1.581.566-4.972-.176-8.126a1.165 1.165 0 01.868-1.402zM138.823 190.887a1.165 1.165 0 011.564-.521c.442.221.649.264 1.048.348.18.038.4.084.699.159a1.165 1.165 0 11-.565 2.262 13.303 13.303 0 00-.445-.099c-.501-.105-1.053-.221-1.78-.585a1.165 1.165 0 01-.521-1.564zM121.276 180.107a1.165 1.165 0 01-.087 1.646c-.708.638-1.347 1.985-1.326 3.51.02 1.456.642 3.019 2.378 4.18 3.569 2.311 6.094 5.267 7.968 9.43a1.166 1.166 0 01-2.127.957c-1.699-3.776-3.937-6.378-7.115-8.434l-.013-.009c-2.428-1.619-3.393-3.925-3.423-6.092-.029-2.098.821-4.126 2.098-5.275a1.166 1.166 0 011.647.087z" fill="#000201"/><path fill-rule="evenodd" clip-rule="evenodd" d="M106.385 182.017c2.289-6.14 8.871-10.838 16.836-9.224a1.167 1.167 0 01-.463 2.286c-6.728-1.364-12.258 2.575-14.188 7.752-.961 2.578-1.014 5.432.108 8.072 1.119 2.632 3.452 5.156 7.451 6.991l.03.014.029.015c5.209 2.757 8.56 5.868 10.75 9.457 2.181 3.574 3.154 7.53 3.758 11.863a1.165 1.165 0 11-2.309.323c-.587-4.205-1.501-7.794-3.439-10.971-1.926-3.155-4.921-5.996-9.822-8.596-4.421-2.036-7.216-4.941-8.594-8.184-1.379-3.242-1.296-6.717-.147-9.798zM77.5 141.498c-8.076 1.615-9.385 2.924-11 11-1.615-8.076-2.924-9.385-11-11 8.076-1.615 9.385-2.924 11-11 1.615 8.076 2.924 9.385 11 11z" fill="#000201"/><circle cx="52" cy="110.998" r="1.5" fill="#000201"/><circle cx="26" cy="202.998" r="1.5" fill="#000201"/><circle cx="131" cy="294.998" r="1.5" fill="#000201"/><circle cx="299" cy="230.998" r="1.5" fill="#000201"/><circle cx="293.53" cy="120.111" r="2.5" transform="rotate(176.254 293.53 120.111)" fill="#000201"/><circle cx="292.158" cy="99.156" r="2.5" transform="rotate(176.254 292.158 99.156)" fill="#000201"/><circle cx="337.074" cy="137.054" r="2.5" transform="rotate(176.254 337.074 137.054)" fill="#000201"/><circle cx="348.657" cy="181.03" r="2.5" transform="rotate(114.201 348.657 181.03)" fill="#000201"/><circle cx="302.066" cy="153.376" r="2.5" transform="rotate(176.254 302.066 153.376)" fill="#000201"/><circle cx="346.668" cy="219.605" r="2.5" transform="rotate(114.201 346.668 219.605)" fill="#000201"/><circle cx="256.918" cy="137.291" r="2.5" transform="rotate(176.254 256.918 137.291)" fill="#000201"/><circle cx="245.793" cy="151.047" r="2.5" transform="rotate(176.254 245.793 151.047)" fill="#000201"/><circle cx="233.51" cy="131.808" r="2.5" transform="rotate(176.254 233.51 131.808)" fill="#000201"/><path d="M256.918 137.291l37.582-17.293M292.256 100.653l1.274 19.458M256.918 137.291l45.148 16.085M256.918 137.291l-10.192 12.693M256.918 137.291l-21.379-5.114M302.066 153.376l34.01-16.257M346.668 219.605l1.579-37.663" stroke="#000"/><circle cx="75.164" cy="293.423" r="2.5" transform="rotate(60.232 75.164 293.423)" fill="#000201"/><circle cx="65.911" cy="278.91" r="2.5" transform="rotate(60.232 65.911 278.91)" fill="#000201"/><circle cx="55.911" cy="299.91" r="2.5" transform="rotate(60.232 55.911 299.91)" fill="#000201"/><circle cx="71.285" cy="246.861" r="2.5" transform="rotate(60.232 71.285 246.861)" fill="#000201"/><circle cx="101.311" cy="271.159" r="2.5" transform="rotate(60.232 101.311 271.159)" fill="#000201"/><circle cx="106.664" cy="318.786" r="2.5" transform="rotate(60.232 106.664 318.786)" fill="#000201"/><circle cx="123.906" cy="322.748" r="2.5" transform="rotate(60.232 123.906 322.748)" fill="#000201"/><circle cx="112.007" cy="342.227" r="2.5" transform="rotate(60.232 112.007 342.227)" fill="#000201"/><path d="M106.664 318.786l-32.028-26.185" stroke="#000" stroke-linecap="round" stroke-dasharray="0.02 3"/><path d="M55.5 299.998l19.664-6.575M66 278.998l9.164 14.425" stroke="#000"/><path d="M106.664 318.786l-5.353-47.627" stroke="#000" stroke-linecap="round" stroke-dasharray="0.02 3"/><path d="M106.664 318.786l15.878 3.591M106.664 318.786l4.784 21.456" stroke="#000"/><path d="M101.311 271.159l-29.53-23.43" stroke="#000" stroke-linecap="round" stroke-dasharray="0.02 3"/><path d="M1 259.498c17-8 17.5-40 7.863-40.5-10.457-.542 4 30 22.5 28.5s22.5-38 4.5-51" stroke="#000"/><path d="M339.5 230.319l2.649 46.074M341.309 228.355l2.649 46.074M343.119 226.391l2.649 46.074M344.928 224.427l2.649 46.074M346.738 222.462l2.649 46.074M348.547 220.498l2.649 46.074" stroke="#fff"/></svg>
