<svg viewBox="0 0 1440 210" fill="none" xmlns="http://www.w3.org/2000/svg"><path d="M1462 60.069s-18.38 19.31-45 30.836c-26.62 11.527-79 20.868-136.11 13.717C1228.46 98.056 1144 47.362 1102 35.21c-42-12.152-81-4.326-116.552 18.577-50.127 32.291-107.074 100.492-160.111 130.967-53.337 30.763-131.855 30.763-184.892 7.708-53.337-23.054-107.074-69.162-160.111-80.689-53.337-11.527-107.075 11.527-160.112 0-53.337-11.527-107.074-57.635-160.111-61.454-53.337-4.106-107.074 34.798-133.092 53.745L0 123.3" stroke="url(#paint_pl0_linear)" stroke-width="2"/><path d="M1450.5 10.69s-20.41 16.856-36.22 25.707c-42.89 24.005-80.35 34.675-133.39 34.675-53.34 0-107.08-44.995-160.11-60.382C1050.5-7.302 1022 1.413 985.447 23.27c-49.695 29.716-107.074 123.86-160.111 154.417-53.337 30.847-131.855 30.847-184.891 7.73-53.337-23.117-107.075-78.102-160.112-89.66-53.337-11.559-107.074 11.558-160.111 0-53.337-11.559-107.074-53.417-160.111-57.245-53.337-4.118-107.074 43.643-133.092 62.642L0 120.442" stroke="url(#paint_pl1_linear)" stroke-width="2"/><defs><linearGradient id="paint_pl0_linear" x1="720.5" y1="212.69" x2="882.953" y2="-23.743" gradientUnits="userSpaceOnUse"><stop stop-color="#E37CB0"/><stop offset="1" stop-color="#67C2AD"/></linearGradient><linearGradient id="paint_pl1_linear" x1="720.5" y1="206.284" x2="916.582" y2="-40.452" gradientUnits="userSpaceOnUse"><stop stop-color="#E37CB0"/><stop offset="1" stop-color="#67C2AD"/></linearGradient></defs></svg>
