<svg width="24" height="24" viewBox="0 0 24 24" fill="none" xmlns="http://www.w3.org/2000/svg"><path d="M5.423 22.385H4.038A1.038 1.038 0 013 21.346v-6.23a1.038 1.038 0 011.038-1.04h1.385a1.038 1.038 0 011.039 1.04v6.23a1.038 1.038 0 01-1.039 1.039zM15.116 22.385H13.73a1.039 1.039 0 01-1.039-1.039V10.962a1.038 1.038 0 011.039-1.039h1.385a1.038 1.038 0 011.038 1.039v10.384a1.039 1.039 0 01-1.038 1.039zM19.962 22.385h-1.385a1.038 1.038 0 01-1.038-1.039V6.116a1.039 1.039 0 011.038-1.04h1.385A1.039 1.039 0 0121 6.117v15.23a1.038 1.038 0 01-1.038 1.039zM10.27 22.385H8.884a1.038 1.038 0 01-1.039-1.039V2.654a1.038 1.038 0 011.039-1.039h1.384a1.039 1.039 0 011.039 1.039v18.692a1.038 1.038 0 01-1.039 1.039z" fill="#E37CB0"/></svg>
