<svg viewBox="0 0 4320 208" xmlns="http://www.w3.org/2000/svg"><g fill="#FFF" fill-rule="nonzero"><path d="M1440 79.011h60c60 0 180 0 300-16s240-48 360-58.7c120-10.3 240-.3 360 10.7s240 21 300 26.7l60 5.3v160H1440v-128zM1440 79.011h-60c-60 0-180 0-300-16s-240-48-360-58.7c-120-10.3-240-.3-360 10.7s-240 21-300 26.7l-60 5.3v160h1440v-128z"/><path d="M4320 47.559l-207.469 28.468c-60 0-32.531 2.984-152.531-13.016s-240-48-360-58.7c-120-10.3-240-.3-360 10.7s-240 21-300 26.7h-120l60 165.3h1440V47.559z"/></g></svg>
